<?xml version="1.0" encoding="utf-8"?>
<!-- Generator: Adobe Illustrator 24.1.2, SVG Export Plug-In . SVG Version: 6.00 Build 0)  -->
<svg version="1.1" xmlns="http://www.w3.org/2000/svg" xmlns:xlink="http://www.w3.org/1999/xlink" x="0px" y="0px"
	 viewBox="0 0 89.33 83.94" style="enable-background:new 0 0 89.33 83.94;" xml:space="preserve">
<style type="text/css">
	.st0{fill:#05CE7C;}
	.st1{fill:none;stroke:#05CE7C;stroke-miterlimit:10;}
	.st2{fill:#042F57;}
	.st3{fill:none;stroke:#05CE7C;stroke-width:2;stroke-miterlimit:10;}
	.st4{display:none;}
	.st5{display:inline;}
	.st6{display:inline;fill:#042F57;stroke:#FFFFFF;stroke-miterlimit:10;}
	.st7{display:inline;fill:#042F57;}
	.st8{display:inline;fill:none;stroke:#05CE7C;stroke-width:2;stroke-miterlimit:10;}
	.st9{display:inline;fill:none;stroke:#153056;stroke-miterlimit:10;}
	.st10{opacity:0.1;fill:#05CE7C;}
	.st11{fill:none;stroke:#05CE7C;stroke-width:0.5;stroke-miterlimit:10;}
	.st12{clip-path:url(#SVGID_2_);}
	.st13{fill:#CBDBFE;}
	.st14{fill:#FFFFFF;}
	.st15{fill:#F2F2F2;}
	.st16{fill:#FEFEFE;}
	.st17{fill:#F1F1F1;}
	.st18{fill:#F2F3F3;}
	.st19{fill:#DDDEDE;}
	.st20{fill:#F3F3F3;}
	.st21{fill:#F3F4F4;}
	.st22{fill:#CFD1D1;}
	.st23{fill:#DBDCDB;}
	.st24{fill:#D8D9D8;}
	.st25{fill:#DFE0DF;}
	.st26{fill:#ECEDED;}
	.st27{fill:#F7F7F6;}
	.st28{fill:#BDBEC0;}
	.st29{fill:#F2F3F2;}
	.st30{fill:#F3F3F2;}
	.st31{fill:#F4F4F3;}
	.st32{fill:#F7F7F7;}
	.st33{fill:#F1F2F2;}
	.st34{fill:#E0E1E1;}
	.st35{fill:#F4F4F4;}
	.st36{fill:#F5F5F5;}
	.st37{fill:#EDEEEE;}
	.st38{fill:#F6F6F6;}
	.st39{fill:#F4F5F5;}
	.st40{fill:#DBDCDC;}
	.st41{fill:#D9DAD9;}
	.st42{fill:#EAEBEA;}
	.st43{fill:#EEF2FD;}
	.st44{fill:#D0DCF8;}
	.st45{fill:#96A9DC;}
	.st46{fill:#99ABDC;}
	.st47{fill:#96AADC;}
	.st48{fill:#98ABDD;}
	.st49{fill:#F7F8FC;}
	.st50{fill:#EDF1FD;}
	.st51{fill:#EBEFFA;}
	.st52{fill:#BCBDC1;}
	.st53{fill:#CED0D5;}
	.st54{fill:#BDC0C8;}
	.st55{fill:#BDC4D3;}
	.st56{fill:#BABFCB;}
	.st57{fill:#D7D8D7;}
	.st58{fill:#DDDEDD;}
	.st59{fill:#D9DADA;}
	.st60{fill:#D5D6D5;}
	.st61{fill:#DADBDB;}
	.st62{fill:#DADBDA;}
	.st63{fill:#D3D4D3;}
	.st64{fill:#D6D7D6;}
	.st65{fill:#D2D3D2;}
	.st66{fill:#D1D2D1;}
	.st67{fill:#D0D1D0;}
	.st68{fill:#D4D5D4;}
	.st69{fill:#E5E6E6;}
	.st70{fill:#D4D5D5;}
	.st71{fill:#DCDDDC;}
	.st72{fill:#DADADA;}
	.st73{fill:#D9D9D9;}
	.st74{fill:#D8D8D8;}
	.st75{fill:#D7D7D7;}
	.st76{fill:#D8D9D9;}
	.st77{fill:#D3D4D4;}
	.st78{fill:#D7D8D8;}
	.st79{fill:#DDDDDD;}
	.st80{fill:#D5D6D6;}
	.st81{fill:#E6E6E6;}
	.st82{fill:#FEFBF2;}
	.st83{fill:#DCDDDD;}
	.st84{fill:#CFD0CF;}
	.st85{fill:#D0D1D1;}
	.st86{fill:#D2D3D3;}
	.st87{fill:#D1D2D2;}
	.st88{fill:#FCFCFD;}
	.st89{fill:#D3D5DA;}
	.st90{fill:#C5C6C6;}
	.st91{fill:#C9C9CA;}
	.st92{fill:#C6C6C7;}
	.st93{fill:#CCDBFD;}
	.st94{fill:#C7C7C7;}
	.st95{fill:#C5C5C6;}
	.st96{fill:#C7C7C8;}
	.st97{fill:#F6F7FC;}
	.st98{fill:#F9FAFD;}
	.st99{fill:#F8F8FB;}
	.st100{fill:#C4C6CA;}
	.st101{fill:#F8F8FC;}
	.st102{fill:#F9F9FD;}
	.st103{fill:#CACACB;}
	.st104{fill:#CCDBFC;}
	.st105{fill:#C8C8C9;}
	.st106{fill:#C5C7CC;}
	.st107{fill:#D7D7D9;}
	.st108{fill:#D1DFFD;}
	.st109{fill:#D2D3D4;}
	.st110{fill:#E9ECF5;}
	.st111{fill:#CECECF;}
	.st112{fill:#D2D4DA;}
	.st113{fill:#EEF2FE;}
	.st114{fill:#C9D9FC;}
	.st115{fill:#BABFCC;}
	.st116{fill:#C8D8FA;}
	.st117{fill:#CADAFB;}
	.st118{fill:#BABEC5;}
	.st119{fill:#CFCFD1;}
	.st120{fill:#98ADE0;}
	.st121{fill:#96ABDE;}
	.st122{fill:#99AEE0;}
	.st123{fill:#97ADDF;}
	.st124{fill:#9BB0E2;}
	.st125{fill:#97ACDF;}
	.st126{fill:#EAEEFA;}
	.st127{fill:#EDF1FC;}
	.st128{fill:#ECF0FB;}
	.st129{fill:#EAEEF9;}
	.st130{fill:#E5E8F0;}
	.st131{fill:#D0D0D2;}
	.st132{fill:#E6E9F2;}
	.st133{fill:#F5F5FA;}
	.st134{fill:#C8C8C8;}
	.st135{fill:#E1E2E6;}
	.st136{fill:#C9D9FB;}
	.st137{fill:#C9D9FD;}
	.st138{fill:#C7D8FC;}
	.st139{fill:#C2D3F9;}
	.st140{fill:#EBEEF9;}
	.st141{fill:none;stroke:#000000;stroke-miterlimit:10;}
	.st142{opacity:0.5;}
	.st143{fill:#059E86;}
	.st144{fill:none;stroke:#042F57;stroke-miterlimit:10;}
	.st145{fill:#DA3AB3;}
	.st146{fill-rule:evenodd;clip-rule:evenodd;fill:#042F57;stroke:#FFFFFF;stroke-width:1.5;stroke-miterlimit:10;}
	.st147{fill:none;stroke:#46B978;stroke-miterlimit:10;}
	.st148{fill:none;}
	.st149{fill-rule:evenodd;clip-rule:evenodd;fill:#05CE7C;}
	.st150{fill:none;stroke:#042F57;stroke-width:0.5;stroke-miterlimit:10;}
	.st151{fill:#042F57;stroke:#042F57;stroke-width:0.5;stroke-miterlimit:10;}
	.st152{fill:#163056;}
	.st153{fill:none;stroke:#163056;stroke-miterlimit:10;}
	.st154{fill:#042F57;stroke:#042F57;stroke-width:0.25;stroke-miterlimit:10;}
	.st155{opacity:0.8;fill:#042F57;}
	.st156{display:inline;fill:none;stroke:#042F57;stroke-miterlimit:10;}
	.st157{fill:none;stroke:#FFFFFF;stroke-miterlimit:10;}
	.st158{fill:#FFFFFF;stroke:#FFFFFF;stroke-width:0.25;stroke-miterlimit:10;}
</style>
<g id="Layer_8">
</g>
<g id="Layer_2" class="st4">
</g>
<g id="Layer_6" class="st4">
</g>
<g id="Layer_3" class="st4">
</g>
<g id="Layer_4">
</g>
<g id="Layer_5">
</g>
<g id="Guides">
	<g>
		<g>
			<path class="st2" d="M49.41,68.84L49.41,68.84h10.56V51.01h4.45l-6.91-7.05v-9.48h-5.06v4.33l-3.04-3.1"/>
		</g>
	</g>
	<g>
		<path class="st152" d="M53.74,27.89h0.64c0.48,0,0.85-0.38,0.85-0.87c0-0.49-0.37-0.87-0.85-0.87h-0.64
			c-0.48,0-0.85,0.38-0.85,0.87C52.88,27.52,53.26,27.89,53.74,27.89z"/>
		<path class="st152" d="M56.94,27.89c0.48,0,0.85-0.38,0.85-0.87c0-0.49-0.37-0.87-0.85-0.87h-0.05c-0.48,0-0.85,0.38-0.85,0.87
			C56.03,27.52,56.46,27.89,56.94,27.89z"/>
		<path class="st152" d="M54.38,73.23h-0.64c-0.48,0-0.85,0.38-0.85,0.87c0,0.49,0.37,0.87,0.85,0.87h0.64
			c0.48,0,0.85-0.38,0.85-0.87S54.86,73.23,54.38,73.23z"/>
		<path class="st152" d="M56.94,73.23L56.94,73.23c-0.53,0-0.91,0.38-0.91,0.87c0,0.49,0.43,0.87,0.91,0.87s0.85-0.38,0.85-0.87
			S57.41,73.23,56.94,73.23z"/>
	</g>
	<g>
		<g>
			<path class="st2" d="M47.93,69.46h-2.15V58.8h-5.05v10.66h-13.4V51.62h-5.39L43.25,29.9l4.67,4.79 M48.11,35.88l-4.86-5
				L23.56,50.94h4.45v17.83h12.03V58.12h6.42v10.66h0h1.47"/>
		</g>
	</g>
	<polyline class="st153" points="52.36,26.87 47.93,26.87 47.93,74.1 52.7,74.1 	"/>
</g>
<g id="Layer_9">
</g>
<g id="Layer_7" class="st4">
</g>
<g id="Layer_10">
</g>
<g id="Layer_11">
</g>
</svg>
