<?xml version="1.0" encoding="utf-8"?>
<!-- Generator: Adobe Illustrator 24.1.2, SVG Export Plug-In . SVG Version: 6.00 Build 0)  -->
<svg version="1.1" xmlns="http://www.w3.org/2000/svg" xmlns:xlink="http://www.w3.org/1999/xlink" x="0px" y="0px"
	 viewBox="0 0 89.33 83.94" style="enable-background:new 0 0 89.33 83.94;" xml:space="preserve">
<style type="text/css">
	.st0{fill:#05CE7C;}
	.st1{fill:none;stroke:#05CE7C;stroke-miterlimit:10;}
	.st2{fill:#042F57;}
	.st3{fill:none;stroke:#05CE7C;stroke-width:2;stroke-miterlimit:10;}
	.st4{display:none;}
	.st5{display:inline;}
	.st6{display:inline;fill:#042F57;stroke:#FFFFFF;stroke-miterlimit:10;}
	.st7{display:inline;fill:#042F57;}
	.st8{display:inline;fill:none;stroke:#05CE7C;stroke-width:2;stroke-miterlimit:10;}
	.st9{display:inline;fill:none;stroke:#153056;stroke-miterlimit:10;}
	.st10{opacity:0.1;fill:#05CE7C;}
	.st11{fill:none;stroke:#05CE7C;stroke-width:0.5;stroke-miterlimit:10;}
	.st12{clip-path:url(#SVGID_2_);}
	.st13{fill:#CBDBFE;}
	.st14{fill:#FFFFFF;}
	.st15{fill:#F2F2F2;}
	.st16{fill:#FEFEFE;}
	.st17{fill:#F1F1F1;}
	.st18{fill:#F2F3F3;}
	.st19{fill:#DDDEDE;}
	.st20{fill:#F3F3F3;}
	.st21{fill:#F3F4F4;}
	.st22{fill:#CFD1D1;}
	.st23{fill:#DBDCDB;}
	.st24{fill:#D8D9D8;}
	.st25{fill:#DFE0DF;}
	.st26{fill:#ECEDED;}
	.st27{fill:#F7F7F6;}
	.st28{fill:#BDBEC0;}
	.st29{fill:#F2F3F2;}
	.st30{fill:#F3F3F2;}
	.st31{fill:#F4F4F3;}
	.st32{fill:#F7F7F7;}
	.st33{fill:#F1F2F2;}
	.st34{fill:#E0E1E1;}
	.st35{fill:#F4F4F4;}
	.st36{fill:#F5F5F5;}
	.st37{fill:#EDEEEE;}
	.st38{fill:#F6F6F6;}
	.st39{fill:#F4F5F5;}
	.st40{fill:#DBDCDC;}
	.st41{fill:#D9DAD9;}
	.st42{fill:#EAEBEA;}
	.st43{fill:#EEF2FD;}
	.st44{fill:#D0DCF8;}
	.st45{fill:#96A9DC;}
	.st46{fill:#99ABDC;}
	.st47{fill:#96AADC;}
	.st48{fill:#98ABDD;}
	.st49{fill:#F7F8FC;}
	.st50{fill:#EDF1FD;}
	.st51{fill:#EBEFFA;}
	.st52{fill:#BCBDC1;}
	.st53{fill:#CED0D5;}
	.st54{fill:#BDC0C8;}
	.st55{fill:#BDC4D3;}
	.st56{fill:#BABFCB;}
	.st57{fill:#D7D8D7;}
	.st58{fill:#DDDEDD;}
	.st59{fill:#D9DADA;}
	.st60{fill:#D5D6D5;}
	.st61{fill:#DADBDB;}
	.st62{fill:#DADBDA;}
	.st63{fill:#D3D4D3;}
	.st64{fill:#D6D7D6;}
	.st65{fill:#D2D3D2;}
	.st66{fill:#D1D2D1;}
	.st67{fill:#D0D1D0;}
	.st68{fill:#D4D5D4;}
	.st69{fill:#E5E6E6;}
	.st70{fill:#D4D5D5;}
	.st71{fill:#DCDDDC;}
	.st72{fill:#DADADA;}
	.st73{fill:#D9D9D9;}
	.st74{fill:#D8D8D8;}
	.st75{fill:#D7D7D7;}
	.st76{fill:#D8D9D9;}
	.st77{fill:#D3D4D4;}
	.st78{fill:#D7D8D8;}
	.st79{fill:#DDDDDD;}
	.st80{fill:#D5D6D6;}
	.st81{fill:#E6E6E6;}
	.st82{fill:#FEFBF2;}
	.st83{fill:#DCDDDD;}
	.st84{fill:#CFD0CF;}
	.st85{fill:#D0D1D1;}
	.st86{fill:#D2D3D3;}
	.st87{fill:#D1D2D2;}
	.st88{fill:#FCFCFD;}
	.st89{fill:#D3D5DA;}
	.st90{fill:#C5C6C6;}
	.st91{fill:#C9C9CA;}
	.st92{fill:#C6C6C7;}
	.st93{fill:#CCDBFD;}
	.st94{fill:#C7C7C7;}
	.st95{fill:#C5C5C6;}
	.st96{fill:#C7C7C8;}
	.st97{fill:#F6F7FC;}
	.st98{fill:#F9FAFD;}
	.st99{fill:#F8F8FB;}
	.st100{fill:#C4C6CA;}
	.st101{fill:#F8F8FC;}
	.st102{fill:#F9F9FD;}
	.st103{fill:#CACACB;}
	.st104{fill:#CCDBFC;}
	.st105{fill:#C8C8C9;}
	.st106{fill:#C5C7CC;}
	.st107{fill:#D7D7D9;}
	.st108{fill:#D1DFFD;}
	.st109{fill:#D2D3D4;}
	.st110{fill:#E9ECF5;}
	.st111{fill:#CECECF;}
	.st112{fill:#D2D4DA;}
	.st113{fill:#EEF2FE;}
	.st114{fill:#C9D9FC;}
	.st115{fill:#BABFCC;}
	.st116{fill:#C8D8FA;}
	.st117{fill:#CADAFB;}
	.st118{fill:#BABEC5;}
	.st119{fill:#CFCFD1;}
	.st120{fill:#98ADE0;}
	.st121{fill:#96ABDE;}
	.st122{fill:#99AEE0;}
	.st123{fill:#97ADDF;}
	.st124{fill:#9BB0E2;}
	.st125{fill:#97ACDF;}
	.st126{fill:#EAEEFA;}
	.st127{fill:#EDF1FC;}
	.st128{fill:#ECF0FB;}
	.st129{fill:#EAEEF9;}
	.st130{fill:#E5E8F0;}
	.st131{fill:#D0D0D2;}
	.st132{fill:#E6E9F2;}
	.st133{fill:#F5F5FA;}
	.st134{fill:#C8C8C8;}
	.st135{fill:#E1E2E6;}
	.st136{fill:#C9D9FB;}
	.st137{fill:#C9D9FD;}
	.st138{fill:#C7D8FC;}
	.st139{fill:#C2D3F9;}
	.st140{fill:#EBEEF9;}
	.st141{fill:none;stroke:#000000;stroke-miterlimit:10;}
	.st142{opacity:0.5;}
	.st143{fill:#059E86;}
	.st144{fill:none;stroke:#042F57;stroke-miterlimit:10;}
	.st145{fill:#DA3AB3;}
	.st146{fill-rule:evenodd;clip-rule:evenodd;fill:#042F57;stroke:#FFFFFF;stroke-width:1.5;stroke-miterlimit:10;}
	.st147{fill:none;stroke:#46B978;stroke-miterlimit:10;}
	.st148{fill:none;}
	.st149{fill-rule:evenodd;clip-rule:evenodd;fill:#05CE7C;}
	.st150{fill:none;stroke:#042F57;stroke-width:0.5;stroke-miterlimit:10;}
	.st151{fill:#042F57;stroke:#042F57;stroke-width:0.5;stroke-miterlimit:10;}
	.st152{fill:#163056;}
	.st153{fill:none;stroke:#163056;stroke-miterlimit:10;}
	.st154{fill:#042F57;stroke:#042F57;stroke-width:0.25;stroke-miterlimit:10;}
	.st155{opacity:0.8;fill:#042F57;}
	.st156{display:inline;fill:none;stroke:#042F57;stroke-miterlimit:10;}
	.st157{fill:none;stroke:#FFFFFF;stroke-miterlimit:10;}
	.st158{fill:#FFFFFF;stroke:#FFFFFF;stroke-width:0.25;stroke-miterlimit:10;}
</style>
<g id="Layer_8">
</g>
<g id="Layer_2" class="st4">
</g>
<g id="Layer_6" class="st4">
</g>
<g id="Layer_3" class="st4">
</g>
<g id="Layer_4">
</g>
<g id="Layer_5">
</g>
<g id="Guides">
	<path class="st144" d="M21.2,31.02h45.16c0.51,0,0.92,0.41,0.92,0.92v29.31c0,0.51-0.41,0.92-0.92,0.92H21.2
		c-0.51,0-0.92-0.41-0.92-0.92V31.94C20.28,31.43,20.69,31.02,21.2,31.02z"/>
	<g>
		<g>
			<g>
				<path class="st152" d="M47.34,47.66c-4.03,3.03-7.9,5.95-11.83,8.9c-3.89-2.93-7.8-5.86-11.83-8.9
					c4.01-3.02,7.89-5.94,11.83-8.91C39.41,41.68,43.31,44.62,47.34,47.66z M33.31,50.41c0.78-0.93,1.34-2.01,1.97-2.99
					c-0.56-1.13-1.16-1.55-1.99-1.43c-0.61,0.96-1.2,2-1.91,2.94C32.06,49.46,32.66,49.92,33.31,50.41z M39.66,48.92
					c-0.76-0.97-1.31-2.03-1.97-2.99c-0.91-0.1-1.44,0.6-1.98,1.43c0.69,1.05,1.24,2.16,2.01,3.04
					C38.37,49.91,38.97,49.45,39.66,48.92z M37.47,50.62c-0.73-0.94-1.28-1.99-1.97-3c-0.34,0.56-0.64,1.05-0.94,1.53
					c-0.31,0.5-0.64,0.98-0.99,1.52c0.68,0.59,1.3,1.14,1.93,1.69C36.19,51.82,36.82,51.28,37.47,50.62z M39.66,52.21
					c0.63-0.48,1.26-0.87,1.89-1.48c-0.64-0.44-1.14-1.01-1.69-1.48c-0.66,0.44-1.3,0.84-1.88,1.46
					C38.52,51.31,39.05,51.77,39.66,52.21z M37.34,45.54c-0.95-1.89-3-1.6-3.62,0.01c0.76,0.13,1.25,0.86,1.81,1.46
					C36.06,46.36,36.56,45.71,37.34,45.54z M29.47,50.8c0.69,0.52,1.29,0.97,1.89,1.41c0.61-0.45,1.17-0.88,1.67-1.53
					c-0.6-0.6-1.23-1.04-1.88-1.42C30.6,49.76,30.08,50.24,29.47,50.8z M32.86,46.08c-1.5-0.59-2.57,0.34-3.63,1.56
					c0.63,0.39,1.23,0.77,1.84,1.14C31.79,47.93,32.31,47,32.86,46.08z M39.96,48.78c0.64-0.4,1.25-0.71,1.81-1.17
					c-1.05-1.17-2.13-2.09-3.62-1.53C38.73,47,39.24,47.96,39.96,48.78z M33.57,53.87c0.57-0.4,1.1-0.78,1.65-1.31
					c-0.66-0.58-1.28-1.12-1.89-1.64c-0.58,0.54-1.09,1.01-1.65,1.54C32.36,52.96,32.96,53.41,33.57,53.87z M37.47,53.86
					c0.61-0.46,1.22-0.92,1.88-1.41c-0.61-0.55-1.12-1.03-1.67-1.53c-0.62,0.55-1.23,1.08-1.87,1.65
					C36.36,53.08,36.89,53.49,37.47,53.86z M28.9,47.82c-0.56,0.44-1.07,0.83-1.66,1.29c0.7,0.52,1.31,0.98,1.93,1.45
					c0.59-0.48,1.15-0.86,1.64-1.53C30.14,48.61,29.54,48.23,28.9,47.82z M43.77,49.12c-0.62-0.49-1.13-0.89-1.66-1.31
					c-0.61,0.47-1.27,0.74-1.88,1.28c0.53,0.6,1.05,1.07,1.66,1.45C42.48,50.09,43.07,49.65,43.77,49.12z M27.27,46.18
					c0.56,0.48,1.07,0.86,1.64,1.19c0.62-0.47,1.2-0.98,1.81-1.59c-0.57-0.36-1.07-0.68-1.58-1C28.52,45.23,27.93,45.68,27.27,46.18
					z M42.13,47.41c0.57-0.41,1.07-0.78,1.66-1.2c-0.7-0.53-1.32-0.99-1.92-1.44c-0.53,0.35-1.02,0.67-1.58,1.04
					C40.95,46.37,41.52,46.88,42.13,47.41z M35.8,42.65c0.75,0.46,1.36,0.84,1.95,1.2c0.56-0.27,1.09-0.48,1.57-1
					c-0.65-0.49-1.25-0.94-1.87-1.41C36.93,41.81,36.43,42.18,35.8,42.65z M33.31,43.83c0.59-0.4,1.23-0.67,1.84-1.24
					c-0.56-0.41-1.06-0.78-1.58-1.16c-0.63,0.48-1.23,0.93-1.9,1.43C32.24,43.35,32.75,43.64,33.31,43.83z M33.89,54.07
					c0.61,0.51,1.11,0.92,1.66,1.24c0.51-0.42,1.06-0.71,1.55-1.25c-0.57-0.48-1.06-0.91-1.61-1.24
					C34.96,53.23,34.47,53.62,33.89,54.07z M26.96,48.91c0.53-0.43,1.09-0.75,1.6-1.32c-0.57-0.41-1.09-0.79-1.61-1.17
					c-0.52,0.45-1.09,0.71-1.57,1.3C25.94,48.13,26.44,48.51,26.96,48.91z M42.4,47.63c0.62,0.48,1.15,0.88,1.66,1.28
					c0.53-0.45,1.09-0.72,1.58-1.3c-0.57-0.42-1.08-0.81-1.59-1.19C43.52,46.81,43.02,47.18,42.4,47.63z M35.51,39.98
					c-0.55,0.44-1.09,0.74-1.61,1.29c0.59,0.43,1.1,0.8,1.62,1.17c0.52-0.44,1.09-0.68,1.58-1.27
					C36.54,40.75,36.04,40.38,35.51,39.98z M29.53,44.55c0.5,0.46,0.99,0.76,1.56,0.91c0.57-0.45,1.13-0.89,1.75-1.39
					c-0.55-0.36-1.02-0.65-1.5-0.96C30.75,43.59,30.12,43.96,29.53,44.55z M41.55,44.53c-0.68-0.52-1.28-0.97-1.88-1.42
					c-0.5,0.33-0.96,0.64-1.49,0.98c0.64,0.5,1.21,0.93,1.76,1.36C40.51,45.31,40.98,44.99,41.55,44.53z M37.1,44.04
					c0-0.06,0-0.12,0.01-0.19c-0.53-0.34-1.07-0.67-1.6-1.01c-0.55,0.35-1.08,0.69-1.61,1.03c0.01,0.05,0.01,0.1,0.02,0.15
					C34.99,43.81,36.04,43.78,37.1,44.04z M34.07,44.44c-0.78-0.28-1.83,0.24-2.37,1.14c0.51,0.04,1,0.02,1.51-0.07
					C33.47,45.18,33.74,44.84,34.07,44.44z M39.33,45.48c-0.74-0.5-1.33-1.55-2.31-1.08C37.55,45.68,38.41,45.7,39.33,45.48z"/>
			</g>
		</g>
		<g>
			<g>
				<g>
					<g>
						<path class="st2" d="M55.61,47.26c-0.79,0-1.56-0.16-2.28-0.46c-0.7-0.3-1.33-0.72-1.86-1.26s-0.96-1.17-1.26-1.86
							c-0.31-0.72-0.46-1.49-0.46-2.28c0-0.7,0.13-1.39,0.37-2.06c0.06-0.16,0.25-0.25,0.41-0.19l4.39,1.62l-1.63-4.42
							c-0.06-0.16,0.02-0.35,0.18-0.41c0.68-0.27,1.39-0.4,2.14-0.4c0.18,0,0.32,0.14,0.32,0.32c0,0.18-0.14,0.32-0.32,0.32
							c-0.55,0-1.09,0.08-1.61,0.25l1.76,4.77c0.04,0.12,0.01,0.25-0.07,0.34c-0.09,0.09-0.22,0.12-0.34,0.07l-4.74-1.75
							c-0.15,0.5-0.23,1.01-0.23,1.53c0,1.39,0.54,2.71,1.53,3.69c0.99,0.99,2.3,1.53,3.69,1.53c1.39,0,2.71-0.54,3.69-1.53
							c0.99-0.99,1.53-2.3,1.53-3.69c0-1.67-0.77-3.21-2.13-4.2c-0.07-0.05-0.11-0.13-0.13-0.21c-0.01-0.08,0.01-0.17,0.06-0.24
							c0.1-0.14,0.31-0.17,0.45-0.07c0.72,0.53,1.32,1.24,1.74,2.03c0.43,0.82,0.65,1.75,0.65,2.69c0,0.79-0.16,1.56-0.46,2.28
							c-0.3,0.7-0.72,1.32-1.26,1.86s-1.17,0.96-1.86,1.26C57.17,47.1,56.4,47.26,55.61,47.26z M56.98,36.34
							c-0.03,0-0.05,0-0.08-0.01c-0.17-0.04-0.28-0.22-0.23-0.39c0.04-0.17,0.22-0.28,0.39-0.23c0.17,0.04,0.28,0.22,0.23,0.39
							C57.25,36.24,57.12,36.34,56.98,36.34z"/>
					</g>
					<g>
						<path class="st2" d="M55.47,41.63c-0.04,0-0.08-0.01-0.11-0.02l-6.15-2.27c-0.08-0.03-0.14-0.09-0.18-0.17
							c-0.04-0.08-0.04-0.17-0.01-0.25c0.34-0.92,0.89-1.78,1.59-2.48c0.7-0.7,1.55-1.25,2.48-1.59c0.08-0.03,0.17-0.03,0.25,0.01
							c0.08,0.04,0.14,0.1,0.17,0.18l2.27,6.15c0.04,0.12,0.01,0.25-0.07,0.34C55.63,41.6,55.55,41.63,55.47,41.63z M49.74,38.85
							l5.19,1.92l-1.92-5.19C51.56,36.21,50.36,37.4,49.74,38.85z"/>
					</g>
					<g>
						<path class="st2" d="M49.47,58.81H47.4c-0.08,0-0.17-0.03-0.23-0.09c-0.06-0.06-0.09-0.14-0.09-0.23v-3.85
							c0-0.08,0.03-0.17,0.09-0.23c0.06-0.06,0.14-0.09,0.23-0.09h2.07c0.08,0,0.17,0.03,0.23,0.09c0.06,0.06,0.09,0.14,0.09,0.23
							v3.85c0,0.09-0.03,0.17-0.09,0.23C49.63,58.77,49.55,58.81,49.47,58.81z M47.72,58.16h1.43v-3.2h-1.43V58.16z"/>
					</g>
					<g>
						<path class="st2" d="M52.87,58.81H50.8c-0.08,0-0.17-0.03-0.23-0.09c-0.06-0.06-0.09-0.14-0.09-0.23v-7.69
							c0-0.08,0.03-0.17,0.09-0.23c0.06-0.06,0.14-0.09,0.23-0.09h2.07c0.08,0,0.17,0.03,0.23,0.09c0.06,0.06,0.09,0.14,0.09,0.23
							v7.69c0,0.09-0.03,0.17-0.09,0.23C53.04,58.77,52.96,58.81,52.87,58.81z M51.12,58.16h1.43v-7.05h-1.43V58.16z"/>
					</g>
					<g>
						<path class="st2" d="M56.28,58.81H54.2c-0.08,0-0.17-0.03-0.23-0.09c-0.06-0.06-0.09-0.14-0.09-0.23v-5.69
							c0-0.09,0.03-0.17,0.09-0.23c0.06-0.06,0.14-0.09,0.23-0.09h2.07c0.08,0,0.17,0.03,0.23,0.09c0.06,0.06,0.09,0.14,0.09,0.23
							v5.69c0,0.09-0.03,0.17-0.09,0.23C56.44,58.77,56.36,58.81,56.28,58.81z M54.52,58.16h1.43v-5.05h-1.43V58.16z"/>
					</g>
					<g>
						<path class="st2" d="M59.68,58.81h-2.07c-0.08,0-0.17-0.03-0.23-0.09c-0.06-0.06-0.09-0.14-0.09-0.23V54.2
							c0-0.08,0.03-0.17,0.09-0.23c0.06-0.06,0.14-0.09,0.23-0.09h2.07c0.08,0,0.17,0.03,0.23,0.09C59.96,54.03,60,54.11,60,54.2
							v4.29c0,0.09-0.03,0.17-0.09,0.23C59.84,58.77,59.76,58.81,59.68,58.81z M57.93,58.16h1.43v-3.65h-1.43V58.16z"/>
					</g>
					<g>
						<path class="st2" d="M63.08,58.81h-2.07c-0.08,0-0.17-0.03-0.23-0.09c-0.06-0.06-0.09-0.14-0.09-0.23v-6.84
							c0-0.08,0.03-0.17,0.09-0.23c0.06-0.06,0.14-0.09,0.23-0.09h2.07c0.08,0,0.17,0.03,0.23,0.09c0.06,0.06,0.09,0.14,0.09,0.23
							v6.84c0,0.09-0.03,0.17-0.09,0.23C63.25,58.77,63.17,58.81,63.08,58.81z M61.33,58.16h1.43v-6.2h-1.43V58.16z"/>
					</g>
					<g>
						<path class="st2" d="M62.59,39.39c-0.18,0-0.32-0.14-0.32-0.32c0-0.01,0-0.01,0-0.02c0-0.01,0-0.01,0-0.01
							c0-1.48-0.79-2.86-2.07-3.6c0,0,0,0,0,0c-0.07-0.04-0.13-0.11-0.15-0.19c-0.02-0.08-0.01-0.17,0.03-0.24
							c0.06-0.1,0.16-0.16,0.28-0.16c0.06,0,0.11,0.01,0.16,0.04c0.74,0.43,1.35,1.05,1.77,1.79c0.41,0.72,0.62,1.54,0.62,2.37v0.03
							C62.91,39.24,62.77,39.39,62.59,39.39z"/>
					</g>
				</g>
			</g>
		</g>
		<g>
			<path class="st153" d="M50.25,67.2c-0.86-0.79-0.95-1.98-0.95-1.98l-0.32-2.58H38.72l-0.32,2.58c0,0-0.09,1.19-0.95,1.98
				c-0.86,0.79-1.53,1.47-0.86,1.59c0.65,0.11,6.81,0.01,7.26,0c0.45,0.01,6.61,0.11,7.26,0C51.78,68.68,51.11,68,50.25,67.2z"/>
			<polygon class="st153" points="56.69,70.9 30.35,70.9 31.76,69.13 55.28,69.13 			"/>
			<rect x="30.35" y="70.9" class="st152" width="26.34" height="0.38"/>
			<path class="st152" d="M64.58,68.74c0,0-1.93-0.02-3.35,0.39c0.34-0.03,0.71,0,1.1,0.13c0.38,0.13,0.76,0.35,1.15,0.58
				c0.71,0.42,1.55,0.9,2.78,1.09c1.84-0.02,2.63-0.2,2.65-0.53C68.93,69.94,68.27,68.81,64.58,68.74z M62.27,69.43
				c-0.89-0.31-1.69-0.01-2.14,0.23c-0.09,0.07-0.16,0.15-0.22,0.24c0,0,0.27,0.88,3.9,1c0.6,0.02,1.14,0.03,1.63,0.04
				c-0.84-0.24-1.48-0.61-2.04-0.94C63.01,69.77,62.64,69.56,62.27,69.43z"/>
			<path class="st152" d="M66.52,71.08C66.52,71.08,66.52,71.08,66.52,71.08c-0.04,0-0.1,0-0.17,0c-0.03,0-0.06,0-0.09,0
				c0,0,0,0,0,0c-0.26,0-0.59,0-0.83,0c0,0,0,0,0.01,0c-0.08,0-0.16,0-0.24,0c-0.03,0-0.04,0-0.04,0h0
				c-0.41-0.01-0.86-0.02-1.35-0.03c-1.36-0.05-2.25-0.2-2.83-0.37v0.21l4.38,0.38c0,0,1.87-0.05,2.44-0.19v-0.08
				C67.46,71.04,67.03,71.07,66.52,71.08z"/>
		</g>
	</g>
</g>
<g id="Layer_9">
</g>
<g id="Layer_7" class="st4">
</g>
<g id="Layer_10">
</g>
<g id="Layer_11">
</g>
</svg>
