<?xml version="1.0" encoding="utf-8"?>
<!-- Generator: Adobe Illustrator 24.1.2, SVG Export Plug-In . SVG Version: 6.00 Build 0)  -->
<svg version="1.1" xmlns="http://www.w3.org/2000/svg" xmlns:xlink="http://www.w3.org/1999/xlink" x="0px" y="0px"
	 viewBox="0 0 89.33 83.94" style="enable-background:new 0 0 89.33 83.94;" xml:space="preserve">
<style type="text/css">
	.st0{fill:#05CE7C;}
	.st1{fill:none;stroke:#05CE7C;stroke-miterlimit:10;}
	.st2{fill:#042F57;}
	.st3{fill:none;stroke:#05CE7C;stroke-width:2;stroke-miterlimit:10;}
	.st4{display:none;}
	.st5{display:inline;}
	.st6{display:inline;fill:#042F57;stroke:#FFFFFF;stroke-miterlimit:10;}
	.st7{display:inline;fill:#042F57;}
	.st8{display:inline;fill:none;stroke:#05CE7C;stroke-width:2;stroke-miterlimit:10;}
	.st9{display:inline;fill:none;stroke:#153056;stroke-miterlimit:10;}
	.st10{opacity:0.1;fill:#05CE7C;}
	.st11{fill:none;stroke:#05CE7C;stroke-width:0.5;stroke-miterlimit:10;}
	.st12{clip-path:url(#SVGID_2_);}
	.st13{fill:#CBDBFE;}
	.st14{fill:#FFFFFF;}
	.st15{fill:#F2F2F2;}
	.st16{fill:#FEFEFE;}
	.st17{fill:#F1F1F1;}
	.st18{fill:#F2F3F3;}
	.st19{fill:#DDDEDE;}
	.st20{fill:#F3F3F3;}
	.st21{fill:#F3F4F4;}
	.st22{fill:#CFD1D1;}
	.st23{fill:#DBDCDB;}
	.st24{fill:#D8D9D8;}
	.st25{fill:#DFE0DF;}
	.st26{fill:#ECEDED;}
	.st27{fill:#F7F7F6;}
	.st28{fill:#BDBEC0;}
	.st29{fill:#F2F3F2;}
	.st30{fill:#F3F3F2;}
	.st31{fill:#F4F4F3;}
	.st32{fill:#F7F7F7;}
	.st33{fill:#F1F2F2;}
	.st34{fill:#E0E1E1;}
	.st35{fill:#F4F4F4;}
	.st36{fill:#F5F5F5;}
	.st37{fill:#EDEEEE;}
	.st38{fill:#F6F6F6;}
	.st39{fill:#F4F5F5;}
	.st40{fill:#DBDCDC;}
	.st41{fill:#D9DAD9;}
	.st42{fill:#EAEBEA;}
	.st43{fill:#EEF2FD;}
	.st44{fill:#D0DCF8;}
	.st45{fill:#96A9DC;}
	.st46{fill:#99ABDC;}
	.st47{fill:#96AADC;}
	.st48{fill:#98ABDD;}
	.st49{fill:#F7F8FC;}
	.st50{fill:#EDF1FD;}
	.st51{fill:#EBEFFA;}
	.st52{fill:#BCBDC1;}
	.st53{fill:#CED0D5;}
	.st54{fill:#BDC0C8;}
	.st55{fill:#BDC4D3;}
	.st56{fill:#BABFCB;}
	.st57{fill:#D7D8D7;}
	.st58{fill:#DDDEDD;}
	.st59{fill:#D9DADA;}
	.st60{fill:#D5D6D5;}
	.st61{fill:#DADBDB;}
	.st62{fill:#DADBDA;}
	.st63{fill:#D3D4D3;}
	.st64{fill:#D6D7D6;}
	.st65{fill:#D2D3D2;}
	.st66{fill:#D1D2D1;}
	.st67{fill:#D0D1D0;}
	.st68{fill:#D4D5D4;}
	.st69{fill:#E5E6E6;}
	.st70{fill:#D4D5D5;}
	.st71{fill:#DCDDDC;}
	.st72{fill:#DADADA;}
	.st73{fill:#D9D9D9;}
	.st74{fill:#D8D8D8;}
	.st75{fill:#D7D7D7;}
	.st76{fill:#D8D9D9;}
	.st77{fill:#D3D4D4;}
	.st78{fill:#D7D8D8;}
	.st79{fill:#DDDDDD;}
	.st80{fill:#D5D6D6;}
	.st81{fill:#E6E6E6;}
	.st82{fill:#FEFBF2;}
	.st83{fill:#DCDDDD;}
	.st84{fill:#CFD0CF;}
	.st85{fill:#D0D1D1;}
	.st86{fill:#D2D3D3;}
	.st87{fill:#D1D2D2;}
	.st88{fill:#FCFCFD;}
	.st89{fill:#D3D5DA;}
	.st90{fill:#C5C6C6;}
	.st91{fill:#C9C9CA;}
	.st92{fill:#C6C6C7;}
	.st93{fill:#CCDBFD;}
	.st94{fill:#C7C7C7;}
	.st95{fill:#C5C5C6;}
	.st96{fill:#C7C7C8;}
	.st97{fill:#F6F7FC;}
	.st98{fill:#F9FAFD;}
	.st99{fill:#F8F8FB;}
	.st100{fill:#C4C6CA;}
	.st101{fill:#F8F8FC;}
	.st102{fill:#F9F9FD;}
	.st103{fill:#CACACB;}
	.st104{fill:#CCDBFC;}
	.st105{fill:#C8C8C9;}
	.st106{fill:#C5C7CC;}
	.st107{fill:#D7D7D9;}
	.st108{fill:#D1DFFD;}
	.st109{fill:#D2D3D4;}
	.st110{fill:#E9ECF5;}
	.st111{fill:#CECECF;}
	.st112{fill:#D2D4DA;}
	.st113{fill:#EEF2FE;}
	.st114{fill:#C9D9FC;}
	.st115{fill:#BABFCC;}
	.st116{fill:#C8D8FA;}
	.st117{fill:#CADAFB;}
	.st118{fill:#BABEC5;}
	.st119{fill:#CFCFD1;}
	.st120{fill:#98ADE0;}
	.st121{fill:#96ABDE;}
	.st122{fill:#99AEE0;}
	.st123{fill:#97ADDF;}
	.st124{fill:#9BB0E2;}
	.st125{fill:#97ACDF;}
	.st126{fill:#EAEEFA;}
	.st127{fill:#EDF1FC;}
	.st128{fill:#ECF0FB;}
	.st129{fill:#EAEEF9;}
	.st130{fill:#E5E8F0;}
	.st131{fill:#D0D0D2;}
	.st132{fill:#E6E9F2;}
	.st133{fill:#F5F5FA;}
	.st134{fill:#C8C8C8;}
	.st135{fill:#E1E2E6;}
	.st136{fill:#C9D9FB;}
	.st137{fill:#C9D9FD;}
	.st138{fill:#C7D8FC;}
	.st139{fill:#C2D3F9;}
	.st140{fill:#EBEEF9;}
	.st141{fill:none;stroke:#000000;stroke-miterlimit:10;}
	.st142{opacity:0.5;}
	.st143{fill:#059E86;}
	.st144{fill:none;stroke:#042F57;stroke-miterlimit:10;}
	.st145{fill:#DA3AB3;}
	.st146{fill-rule:evenodd;clip-rule:evenodd;fill:#042F57;stroke:#FFFFFF;stroke-width:1.5;stroke-miterlimit:10;}
	.st147{fill:none;stroke:#46B978;stroke-miterlimit:10;}
	.st148{fill:none;}
	.st149{fill-rule:evenodd;clip-rule:evenodd;fill:#05CE7C;}
	.st150{fill:none;stroke:#042F57;stroke-width:0.5;stroke-miterlimit:10;}
	.st151{fill:#042F57;stroke:#042F57;stroke-width:0.5;stroke-miterlimit:10;}
	.st152{fill:#163056;}
	.st153{fill:none;stroke:#163056;stroke-miterlimit:10;}
	.st154{fill:#042F57;stroke:#042F57;stroke-width:0.25;stroke-miterlimit:10;}
	.st155{opacity:0.8;fill:#042F57;}
	.st156{display:inline;fill:none;stroke:#042F57;stroke-miterlimit:10;}
	.st157{fill:none;stroke:#FFFFFF;stroke-miterlimit:10;}
	.st158{fill:#FFFFFF;stroke:#FFFFFF;stroke-width:0.25;stroke-miterlimit:10;}
</style>
<g id="Layer_8">
</g>
<g id="Layer_2" class="st4">
</g>
<g id="Layer_6" class="st4">
</g>
<g id="Layer_3" class="st4">
</g>
<g id="Layer_4">
</g>
<g id="Layer_5">
</g>
<g id="Guides">
	<g>
		<g>
			<g>
				<g>
					<path class="st2" d="M44.67,60.41c-4.94,0-8.96-4.02-8.96-8.96c0-3.86,2.46-7.28,6.12-8.5c0.16-0.05,0.34,0.03,0.39,0.2
						c0.05,0.16-0.03,0.34-0.2,0.39c-3.41,1.14-5.69,4.32-5.69,7.91c0,4.6,3.74,8.34,8.34,8.34c4.6,0,8.34-3.74,8.34-8.34
						c0-4.6-3.74-8.34-8.34-8.34c-0.17,0-0.31-0.14-0.31-0.31s0.14-0.31,0.31-0.31c4.94,0,8.96,4.02,8.96,8.96
						C53.63,56.39,49.61,60.41,44.67,60.41z"/>
				</g>
				<g>
					<path class="st2" d="M43.2,71.94c-0.08,0-0.16-0.03-0.22-0.09L24.26,53.13c-0.06-0.06-0.09-0.14-0.09-0.22
						c0-0.08,0.03-0.16,0.09-0.22c0.33-0.33,0.52-0.78,0.52-1.25s-0.18-0.91-0.52-1.25c-0.06-0.06-0.09-0.14-0.09-0.22
						c0-0.08,0.03-0.16,0.09-0.22l13.52-13.52c0.12-0.12,0.32-0.12,0.44,0c0.12,0.12,0.12,0.32,0,0.44L24.9,49.99
						c0.32,0.41,0.49,0.92,0.49,1.45s-0.17,1.04-0.49,1.45l18.31,18.31c0.41-0.32,0.92-0.49,1.45-0.49c0.42,0,0.84,0.11,1.21,0.33
						c0.15,0.09,0.2,0.28,0.11,0.42c-0.09,0.15-0.28,0.2-0.42,0.11c-0.27-0.16-0.58-0.24-0.89-0.24c-0.47,0-0.91,0.18-1.25,0.52
						C43.36,71.91,43.28,71.94,43.2,71.94z M49.41,68.67c-0.08,0-0.16-0.03-0.22-0.09c-0.12-0.12-0.12-0.32,0-0.44L64.43,52.9
						c-0.32-0.41-0.49-0.92-0.49-1.45c0-0.53,0.17-1.04,0.49-1.45L46.12,31.68c-0.41,0.32-0.92,0.49-1.45,0.49
						c-0.53,0-1.04-0.17-1.45-0.49l-1.35,1.35c-0.12,0.12-0.32,0.12-0.44,0c-0.12-0.12-0.12-0.32,0-0.44l1.56-1.56
						c0.06-0.06,0.14-0.09,0.22-0.09c0,0,0,0,0,0c0.08,0,0.16,0.03,0.22,0.09c0.33,0.33,0.77,0.52,1.25,0.52
						c0.47,0,0.92-0.18,1.25-0.52c0.06-0.06,0.14-0.09,0.22-0.09c0,0,0,0,0,0c0.08,0,0.16,0.03,0.22,0.09l18.72,18.72
						c0.06,0.06,0.09,0.14,0.09,0.22c0,0.08-0.03,0.16-0.09,0.22c-0.33,0.33-0.52,0.77-0.52,1.25s0.18,0.92,0.52,1.25
						c0.06,0.06,0.09,0.14,0.09,0.22c0,0.08-0.03,0.16-0.09,0.22L49.63,68.58C49.57,68.64,49.49,68.67,49.41,68.67z"/>
				</g>
				<g>
					<path class="st2" d="M66.32,53.83c-1.31,0-2.38-1.07-2.38-2.39c0-1.31,1.07-2.38,2.38-2.38c1.31,0,2.38,1.07,2.38,2.38
						C68.71,52.76,67.64,53.83,66.32,53.83z M66.32,49.68c-0.97,0-1.76,0.79-1.76,1.76c0,0.97,0.79,1.77,1.76,1.77
						c0.97,0,1.76-0.79,1.76-1.77C68.09,50.47,67.3,49.68,66.32,49.68z"/>
				</g>
				<g>
					<path class="st2" d="M23.01,53.83c-1.32,0-2.39-1.07-2.39-2.39c0-1.31,1.07-2.38,2.39-2.38c1.31,0,2.38,1.07,2.38,2.38
						C25.39,52.76,24.32,53.83,23.01,53.83z M23.01,49.68c-0.97,0-1.77,0.79-1.77,1.76c0,0.97,0.79,1.77,1.77,1.77
						c0.97,0,1.76-0.79,1.76-1.77C24.77,50.47,23.98,49.68,23.01,49.68z"/>
				</g>
				<g>
					<path class="st2" d="M44.67,32.17c-1.31,0-2.38-1.07-2.38-2.38c0-1.31,1.07-2.38,2.38-2.38c1.31,0,2.38,1.07,2.38,2.38
						C47.05,31.1,45.98,32.17,44.67,32.17z M44.67,28.02c-0.97,0-1.77,0.79-1.77,1.76c0,0.97,0.79,1.76,1.77,1.76
						c0.97,0,1.76-0.79,1.76-1.76C46.43,28.82,45.64,28.02,44.67,28.02z"/>
				</g>
				<g>
					<path class="st2" d="M44.67,75.49c-1.31,0-2.38-1.07-2.38-2.39c0-1.31,1.07-2.38,2.38-2.38c1.31,0,2.38,1.07,2.38,2.38
						C47.05,74.42,45.98,75.49,44.67,75.49z M44.67,71.34c-0.97,0-1.77,0.79-1.77,1.76c0,0.97,0.79,1.77,1.77,1.77
						c0.97,0,1.76-0.79,1.76-1.77C46.43,72.13,45.64,71.34,44.67,71.34z"/>
				</g>
				<g>
					<path class="st2" d="M63.24,46.59c-0.08,0-0.16-0.03-0.22-0.09L49.46,32.94c-0.12-0.12-0.12-0.32,0-0.44
						c0.12-0.12,0.32-0.12,0.44,0l13.56,13.56c0.12,0.12,0.12,0.32,0,0.44C63.4,46.56,63.32,46.59,63.24,46.59z"/>
				</g>
				<g>
					<path class="st2" d="M44.67,64.16c-4.42,0-8.46-2.24-10.8-6c-0.09-0.15-0.05-0.34,0.1-0.43c0.15-0.09,0.34-0.05,0.43,0.1
						c2.23,3.58,6.07,5.71,10.28,5.71c6.67,0,12.1-5.43,12.1-12.1c0-6.67-5.43-12.1-12.1-12.1c-6.67,0-12.1,5.43-12.1,12.1
						c0,0.57,0.04,1.14,0.12,1.7c0.02,0.17-0.09,0.33-0.26,0.35c-0.17,0.02-0.33-0.09-0.35-0.26c-0.08-0.59-0.12-1.19-0.12-1.78
						c0-7.01,5.7-12.72,12.72-12.72c7.01,0,12.72,5.71,12.72,12.72C57.38,58.46,51.68,64.16,44.67,64.16z"/>
				</g>
				<g>
					<path class="st2" d="M41.82,70.6h-11.5c-0.17,0-0.31-0.14-0.31-0.31s0.14-0.31,0.31-0.31h11.5c0.17,0,0.31,0.14,0.31,0.31
						S41.99,70.6,41.82,70.6z"/>
				</g>
				<g>
					<path class="st2" d="M60.12,71.95H47.86c-0.17,0-0.31-0.14-0.31-0.31c0-0.17,0.14-0.31,0.31-0.31h12.26
						c0.17,0,0.31,0.14,0.31,0.31C60.43,71.81,60.29,71.95,60.12,71.95z"/>
				</g>
				<g>
					<path class="st2" d="M64.06,71.95h-2.17c-0.17,0-0.31-0.14-0.31-0.31c0-0.17,0.14-0.31,0.31-0.31h2.17
						c0.17,0,0.31,0.14,0.31,0.31C64.37,71.81,64.23,71.95,64.06,71.95z"/>
				</g>
				<g>
					<path class="st2" d="M35.33,71.91H27.1c-0.17,0-0.31-0.14-0.31-0.31c0-0.17,0.14-0.31,0.31-0.31h8.22
						c0.17,0,0.31,0.14,0.31,0.31C35.64,71.77,35.5,71.91,35.33,71.91z"/>
				</g>
			</g>
		</g>
	</g>
	<g>
		<g>
			<path class="st154" d="M49.23,56.56h-3.84v-3.05h-1.45v3.05h-3.84v-5.11h-1.54l6.1-6.22l2.02,2.05v-0.96h1.84v2.83l2.25,2.29
				h-1.54V56.56z M44.66,45.51 M45.59,56.37"/>
		</g>
	</g>
</g>
<g id="Layer_9">
</g>
<g id="Layer_7" class="st4">
</g>
<g id="Layer_10">
</g>
<g id="Layer_11">
</g>
</svg>
