<svg xmlns="http://www.w3.org/2000/svg" viewBox="0 0 21.064 27.646"><path d="M1.2.528V11.521s0,0,0-.005l.015-.028.03-.055a4.6,4.6,0,0,1,.6-.849A4.645,4.645,0,1,1,.669,13.669V.526Zm4.12,9.021a4.121,4.121,0,1,0,2.913,1.207A4.114,4.114,0,0,0,5.315,9.549ZM20.5,13.669v8.252c0,.182,0,.365,0,.548a4.646,4.646,0,0,1-9.172,1.013,4.684,4.684,0,0,1-.091-.538c-.01-.088-.017-.176-.022-.264,0-.043,0-.087,0-.13v-.116h.525v.021a4.017,4.017,0,0,0,.029.465,4.119,4.119,0,0,0,7.894,1.095,4.061,4.061,0,0,0,.275-1,4.188,4.188,0,0,0,.04-.488c0-.088,0-.176,0-.263V15.816a4.571,4.571,0,0,1-.285.476,4.647,4.647,0,1,1,.811-2.623Zm-4.645,4.12a4.119,4.119,0,1,0-2.914-1.207A4.114,4.114,0,0,0,15.853,17.789Z" fill="#606161" stroke="#606161" stroke-linejoin="round"/></svg>