<svg xmlns="http://www.w3.org/2000/svg" viewBox="0 0 20.83 27.802"><path d="M1.034,14.68a4.119,4.119,0,0,0,3.7,3.836c.085.009.171.015.257.018.042,0,.084,0,.127,0h.031v.524s0,0-.007,0H5.12l-.148,0a4.646,4.646,0,1,1,4.8-5.033c.019.224.016.353.016.577v.076H1.034Zm0-.526H9.257v-.027c0-.05-.008-.1-.013-.148a4.12,4.12,0,0,0-8.208.176Zm10.53-3.478v-.641h-.524V18.8s.008,0,.01,0h.516V14.805c0-.254-.007-.508.017-.762a4.013,4.013,0,0,1,.133-.729,4.12,4.12,0,0,1,8.033.426c.02.12.035.241.044.362s.012.24.012.36v4.329s0,.009,0,.009h.523V14.813c0-.246,0-.49-.012-.735a4.646,4.646,0,0,0-8.753-1.808Z" fill="none" stroke="#47b978" stroke-linecap="round" stroke-linejoin="round"/></svg>