<?xml version="1.0" encoding="utf-8"?>
<!-- Generator: Adobe Illustrator 24.1.2, SVG Export Plug-In . SVG Version: 6.00 Build 0)  -->
<svg version="1.1" xmlns="http://www.w3.org/2000/svg" xmlns:xlink="http://www.w3.org/1999/xlink" x="0px" y="0px"
	 viewBox="0 0 89.33 83.94" style="enable-background:new 0 0 89.33 83.94;" xml:space="preserve">
<style type="text/css">
	.st0{fill:#05CE7C;}
	.st1{fill:none;stroke:#05CE7C;stroke-miterlimit:10;}
	.st2{fill:#042F57;}
	.st3{fill:none;stroke:#05CE7C;stroke-width:2;stroke-miterlimit:10;}
	.st4{display:none;}
	.st5{display:inline;}
	.st6{display:inline;fill:#042F57;stroke:#FFFFFF;stroke-miterlimit:10;}
	.st7{display:inline;fill:#042F57;}
	.st8{display:inline;fill:none;stroke:#05CE7C;stroke-width:2;stroke-miterlimit:10;}
	.st9{display:inline;fill:none;stroke:#153056;stroke-miterlimit:10;}
	.st10{opacity:0.1;fill:#05CE7C;}
	.st11{fill:none;stroke:#05CE7C;stroke-width:0.5;stroke-miterlimit:10;}
	.st12{clip-path:url(#SVGID_2_);}
	.st13{fill:#CBDBFE;}
	.st14{fill:#FFFFFF;}
	.st15{fill:#F2F2F2;}
	.st16{fill:#FEFEFE;}
	.st17{fill:#F1F1F1;}
	.st18{fill:#F2F3F3;}
	.st19{fill:#DDDEDE;}
	.st20{fill:#F3F3F3;}
	.st21{fill:#F3F4F4;}
	.st22{fill:#CFD1D1;}
	.st23{fill:#DBDCDB;}
	.st24{fill:#D8D9D8;}
	.st25{fill:#DFE0DF;}
	.st26{fill:#ECEDED;}
	.st27{fill:#F7F7F6;}
	.st28{fill:#BDBEC0;}
	.st29{fill:#F2F3F2;}
	.st30{fill:#F3F3F2;}
	.st31{fill:#F4F4F3;}
	.st32{fill:#F7F7F7;}
	.st33{fill:#F1F2F2;}
	.st34{fill:#E0E1E1;}
	.st35{fill:#F4F4F4;}
	.st36{fill:#F5F5F5;}
	.st37{fill:#EDEEEE;}
	.st38{fill:#F6F6F6;}
	.st39{fill:#F4F5F5;}
	.st40{fill:#DBDCDC;}
	.st41{fill:#D9DAD9;}
	.st42{fill:#EAEBEA;}
	.st43{fill:#EEF2FD;}
	.st44{fill:#D0DCF8;}
	.st45{fill:#96A9DC;}
	.st46{fill:#99ABDC;}
	.st47{fill:#96AADC;}
	.st48{fill:#98ABDD;}
	.st49{fill:#F7F8FC;}
	.st50{fill:#EDF1FD;}
	.st51{fill:#EBEFFA;}
	.st52{fill:#BCBDC1;}
	.st53{fill:#CED0D5;}
	.st54{fill:#BDC0C8;}
	.st55{fill:#BDC4D3;}
	.st56{fill:#BABFCB;}
	.st57{fill:#D7D8D7;}
	.st58{fill:#DDDEDD;}
	.st59{fill:#D9DADA;}
	.st60{fill:#D5D6D5;}
	.st61{fill:#DADBDB;}
	.st62{fill:#DADBDA;}
	.st63{fill:#D3D4D3;}
	.st64{fill:#D6D7D6;}
	.st65{fill:#D2D3D2;}
	.st66{fill:#D1D2D1;}
	.st67{fill:#D0D1D0;}
	.st68{fill:#D4D5D4;}
	.st69{fill:#E5E6E6;}
	.st70{fill:#D4D5D5;}
	.st71{fill:#DCDDDC;}
	.st72{fill:#DADADA;}
	.st73{fill:#D9D9D9;}
	.st74{fill:#D8D8D8;}
	.st75{fill:#D7D7D7;}
	.st76{fill:#D8D9D9;}
	.st77{fill:#D3D4D4;}
	.st78{fill:#D7D8D8;}
	.st79{fill:#DDDDDD;}
	.st80{fill:#D5D6D6;}
	.st81{fill:#E6E6E6;}
	.st82{fill:#FEFBF2;}
	.st83{fill:#DCDDDD;}
	.st84{fill:#CFD0CF;}
	.st85{fill:#D0D1D1;}
	.st86{fill:#D2D3D3;}
	.st87{fill:#D1D2D2;}
	.st88{fill:#FCFCFD;}
	.st89{fill:#D3D5DA;}
	.st90{fill:#C5C6C6;}
	.st91{fill:#C9C9CA;}
	.st92{fill:#C6C6C7;}
	.st93{fill:#CCDBFD;}
	.st94{fill:#C7C7C7;}
	.st95{fill:#C5C5C6;}
	.st96{fill:#C7C7C8;}
	.st97{fill:#F6F7FC;}
	.st98{fill:#F9FAFD;}
	.st99{fill:#F8F8FB;}
	.st100{fill:#C4C6CA;}
	.st101{fill:#F8F8FC;}
	.st102{fill:#F9F9FD;}
	.st103{fill:#CACACB;}
	.st104{fill:#CCDBFC;}
	.st105{fill:#C8C8C9;}
	.st106{fill:#C5C7CC;}
	.st107{fill:#D7D7D9;}
	.st108{fill:#D1DFFD;}
	.st109{fill:#D2D3D4;}
	.st110{fill:#E9ECF5;}
	.st111{fill:#CECECF;}
	.st112{fill:#D2D4DA;}
	.st113{fill:#EEF2FE;}
	.st114{fill:#C9D9FC;}
	.st115{fill:#BABFCC;}
	.st116{fill:#C8D8FA;}
	.st117{fill:#CADAFB;}
	.st118{fill:#BABEC5;}
	.st119{fill:#CFCFD1;}
	.st120{fill:#98ADE0;}
	.st121{fill:#96ABDE;}
	.st122{fill:#99AEE0;}
	.st123{fill:#97ADDF;}
	.st124{fill:#9BB0E2;}
	.st125{fill:#97ACDF;}
	.st126{fill:#EAEEFA;}
	.st127{fill:#EDF1FC;}
	.st128{fill:#ECF0FB;}
	.st129{fill:#EAEEF9;}
	.st130{fill:#E5E8F0;}
	.st131{fill:#D0D0D2;}
	.st132{fill:#E6E9F2;}
	.st133{fill:#F5F5FA;}
	.st134{fill:#C8C8C8;}
	.st135{fill:#E1E2E6;}
	.st136{fill:#C9D9FB;}
	.st137{fill:#C9D9FD;}
	.st138{fill:#C7D8FC;}
	.st139{fill:#C2D3F9;}
	.st140{fill:#EBEEF9;}
	.st141{fill:none;stroke:#000000;stroke-miterlimit:10;}
	.st142{opacity:0.5;}
	.st143{fill:#059E86;}
	.st144{fill:none;stroke:#042F57;stroke-miterlimit:10;}
	.st145{fill:#DA3AB3;}
	.st146{fill-rule:evenodd;clip-rule:evenodd;fill:#042F57;stroke:#FFFFFF;stroke-width:1.5;stroke-miterlimit:10;}
	.st147{fill:none;stroke:#46B978;stroke-miterlimit:10;}
	.st148{fill:none;}
	.st149{fill-rule:evenodd;clip-rule:evenodd;fill:#05CE7C;}
	.st150{fill:none;stroke:#042F57;stroke-width:0.5;stroke-miterlimit:10;}
	.st151{fill:#042F57;stroke:#042F57;stroke-width:0.5;stroke-miterlimit:10;}
	.st152{fill:#163056;}
	.st153{fill:none;stroke:#163056;stroke-miterlimit:10;}
	.st154{fill:#042F57;stroke:#042F57;stroke-width:0.25;stroke-miterlimit:10;}
	.st155{opacity:0.8;fill:#042F57;}
	.st156{display:inline;fill:none;stroke:#042F57;stroke-miterlimit:10;}
	.st157{fill:none;stroke:#FFFFFF;stroke-miterlimit:10;}
	.st158{fill:#FFFFFF;stroke:#FFFFFF;stroke-width:0.25;stroke-miterlimit:10;}
</style>
<g id="Layer_8">
</g>
<g id="Layer_2" class="st4">
</g>
<g id="Layer_6" class="st4">
</g>
<g id="Layer_3" class="st4">
</g>
<g id="Layer_4">
</g>
<g id="Layer_5">
</g>
<g id="Guides">
	<path class="st146" d="M67.34,68.76c-0.37,0.34-0.85,0.54-1.38,0.54c-1.16,0-2.1,0-2.1,0l0.01,0H32.47c0-0.78,0.02-2.62,0.02-2.62
		h32.22c0.39-0.07,0.75-0.25,1.04-0.51c3.18-4.38,5.07-9.82,5.07-15.73c0-5.54-1.66-10.68-4.49-14.91l3.49,0.29
		c2.41,4.29,3.79,9.28,3.79,14.61C73.6,57.39,71.25,63.77,67.34,68.76z M67.08,33.43c0,0-5.13-0.89-6.55-1.14
		c-0.48-0.08-0.07-0.43-0.07-0.43l1.23-1.55c-4.34-3.73-9.9-5.97-15.97-5.97c-4.43,0-8.58,1.19-12.2,3.29l0.65-3.59
		c3.52-1.67,7.43-2.6,11.55-2.6c6.74,0,12.92,2.49,17.74,6.63l1.26-1.58c0,0,0.26-0.48,0.45,0.06c0.46,1.27,1.8,5.01,2.31,6.44
		C67.66,33.56,67.08,33.43,67.08,33.43z M29.76,33.33c-0.13,0.49-0.42,0.03-0.42,0.03L28,31.96c-4.56,4.73-7.38,11.26-7.38,18.49
		c0,5.81,1.83,11.17,4.91,15.51c0.05,0.05,0.11,0.1,0.16,0.16c0.3,0.3,0.68,0.5,1.11,0.58l3.63,0.04c0,0-0.02,1.5-0.03,2.64
		l-2.75-0.06l0.01,0c0,0-0.94,0-2.1,0c-0.57,0-1.08-0.23-1.45-0.61c-0.08-0.08-0.15-0.15-0.22-0.21
		c-3.78-4.95-6.05-11.22-6.05-18.03c0-8.03,3.13-15.29,8.2-20.54l-1.41-1.47c0,0-0.43-0.31,0.1-0.46c1.26-0.35,4.97-1.39,6.38-1.78
		c0.58-0.13,0.39,0.45,0.39,0.45S30.14,31.88,29.76,33.33z"/>
	<g>
		<path class="st150" d="M27.17,58.85c-0.06-0.44,0.03-0.83,0.27-1.23c0.47-0.75,0.88-1.53,1.31-2.31c0.08-0.14,0.16-0.18,0.31-0.18
			c0.6,0.01,1.19,0,1.79,0c0.03,0,0.06,0,0.08,0.01c0.24,0,0.47,0,0.71,0c0.53,0,0.53,0,0.53-0.52c0-5.48,0-10.96,0-16.44
			c0.54-0.01,2.36-0.02,3.28,0c0,2.61,0,5.21,0,7.82c0,2.89,0,5.77,0,8.66c0,0.46,0.03,0.48,0.5,0.48c0.29,0,0.58,0,0.87,0
			c0.43,0,0.86,0,1.3,0c0.48,0.07,0.95-0.03,1.43,0c3.69,0,7.39,0,11.08,0c0.47,0,0.94,0,1.41,0.01c0,0,0,0.01,0,0.01
			c-0.01,0.02-0.01,0.03-0.02,0.05c0.01-0.02,0.02-0.04,0.02-0.05c0.43-0.01,0.85-0.02,1.28-0.03c0.34,0,0.68,0,1.02,0.01
			c0.22,0.01,0.31-0.07,0.31-0.3c-0.01-0.83,0-1.67,0-2.5c0-0.1,0-1.04,0-1.16c0-1.51,0-3.02,0-4.52c1.09,0,2.19,0,3.28,0
			c0,2.69,0,5.37,0,8.06c0,0.42,0,0.42,0.4,0.42c0.32,0,0.64,0,0.96,0c0.98,0,1.96,0.01,2.93-0.01c0.21,0,0.31,0.07,0.4,0.24
			c0.48,0.86,0.96,1.72,1.46,2.58c0.14,0.24,0.1,0.47,0.09,0.72c-7.64,0-15.29,0-22.93,0c-4.56,0-9.12,0-13.68,0
			C27.4,58.66,27.23,58.63,27.17,58.85z M34.53,42.17c0-0.33,0-0.66,0-0.99c0-0.35,0.01-0.7,0-1.05c-0.02-0.42-0.29-0.69-0.68-0.72
			c-0.34-0.02-0.63,0.19-0.69,0.6c-0.1,0.73-0.03,1.48-0.03,2.22"/>
		<path class="st150" d="M27.17,58.85c0.06-0.22,0.24-0.18,0.4-0.18c4.56,0,9.12,0,13.68,0c7.64,0,15.29,0,22.93,0
			c0.01,1.7,0.01,3.41,0.01,5.11c0,0.13-0.01,0.27-0.01,0.4c-0.76,0-1.52,0.01-2.28,0.01c0-0.33-0.01-0.67-0.01-1
			c0-0.09,0-0.19,0-0.28c0-0.84-0.5-1.59-1.27-1.9c-0.78-0.32-1.64-0.14-2.24,0.46c-0.52,0.52-0.62,1.16-0.57,1.85
			c0,0.29-0.01,0.58-0.01,0.88c-1,0-2.01,0-3.01,0c0-0.29-0.01-0.59-0.01-0.88c0.01-0.44,0.02-0.88-0.19-1.29
			c-0.36-0.72-0.95-1.1-1.73-1.17c-0.71-0.07-1.28,0.25-1.73,0.78c-0.41,0.49-0.48,1.07-0.44,1.68c0,0.29-0.01,0.58-0.01,0.88
			c-0.99,0-1.98-0.01-2.97-0.01c0-0.29-0.01-0.58-0.01-0.87c0.02-0.4-0.01-0.79-0.16-1.18c-0.31-0.77-1.09-1.3-1.92-1.29
			c-0.82,0.01-1.64,0.6-1.9,1.37c-0.15,0.44-0.06,0.9-0.09,1.35c-0.01,0.21-0.01,0.42-0.02,0.64c-1,0-2-0.01-3.01-0.01
			c0-0.29-0.01-0.58-0.01-0.87c0-0.27,0-0.53-0.05-0.8c-0.15-0.8-0.63-1.3-1.37-1.56c-0.76-0.27-1.43-0.07-2.02,0.45
			c-0.58,0.51-0.68,1.19-0.64,1.91c0,0.29-0.01,0.58-0.01,0.87c-1,0-2.01,0.01-3.01,0.01c-0.01-0.21-0.01-0.42-0.02-0.63
			c0-0.26,0.01-0.51,0-0.77c-0.01-0.83-0.62-1.63-1.46-1.86c-0.87-0.24-1.6,0.03-2.18,0.7c-0.41,0.48-0.48,1.07-0.44,1.68
			c0,0.29-0.01,0.58-0.01,0.87c-0.74,0-1.48,0-2.22-0.01C27.14,62.4,27.13,60.62,27.17,58.85z"/>
		<path class="st151" d="M57.92,46.65c-1.09,0-2.19,0-3.28,0c-0.31,0-1.24-0.01-1.24-0.01s0.01,6.64,0.02,8.2
			c0,0.07-0.04,0.09-0.1,0.1c0-1.56,0.01-6.74,0-8.31c-0.18,0-0.51-0.02-0.72-0.02c1.12-0.93,2.35-1.95,3.46-2.88
			c0.17-0.14,0.27-0.14,0.43,0c1.11,0.93,3.3,2.69,3.54,2.9c-0.57,0.01-0.32,0.01-0.77,0.01c0,2.42,0,5.42,0,7.84
			c0,0.15-0.01,0.31-0.01,0.46c-0.16-0.07-0.09-0.22-0.09-0.33c0-1.8,0-3.6,0-5.41c0-0.76-0.01-1.81,0-2.58
			C58.92,46.64,58.24,46.65,57.92,46.65z"/>
		<path class="st151" d="M30.98,38.15c0,0,0.01,0.29,0.01,0.43c0,1.19-0.06,16.55-0.06,16.55s-0.03,0-0.06,0
			c-0.01-1.31-0.01-15.24-0.02-16.55c0-0.43,0-0.43,0-0.43s-0.47,0-0.67-0.02c0.37-0.31,0.74-0.66,1.11-0.96
			c0.8-0.66,1.59-1.31,2.39-1.97c0.1-0.08,0.16-0.13,0.28-0.03c1.16,0.97,2.42,1.99,3.61,2.97C36.97,38.16,30.98,38.15,30.98,38.15z
			"/>
		<path class="st150" d="M57.79,64.18c0.01,1.19,0.01,2.38,0.02,3.57c-1.02,0-2.03,0-3.05,0c0-1.07,0.01-2.13,0.01-3.2
			c0-0.12,0.01-0.25,0.01-0.37C55.78,64.18,56.79,64.18,57.79,64.18z"/>
		<path class="st150" d="M33.47,67.75c0-1.06,0.01-2.11,0.01-3.17c0-0.13,0.01-0.27,0.01-0.4c1,0,2.01-0.01,3.01-0.01
			c0,1.19,0.01,2.38,0.01,3.57C35.5,67.75,34.48,67.75,33.47,67.75z"/>
		<path class="st150" d="M40.58,67.75c0-1.19,0.01-2.38,0.01-3.57c1,0,2,0.01,3.01,0.01c-0.01,1.18-0.02,2.37-0.02,3.55
			C42.58,67.78,41.58,67.76,40.58,67.75z"/>
		<path class="st150" d="M50.67,64.18c0.01,1.19,0.01,2.38,0.02,3.57c-1,0-2,0-2.99,0c0-1.19,0.01-2.38,0.01-3.57
			C48.7,64.17,49.69,64.18,50.67,64.18z"/>
		<path class="st150" d="M61.88,67.75c0.01-1.19,0.01-2.38,0.02-3.57c0.76,0,1.52-0.01,2.28-0.01c0,1.12,0,2.25,0.01,3.37
			c0,0.19-0.08,0.22-0.24,0.22C63.26,67.75,62.57,67.75,61.88,67.75z"/>
		<path class="st150" d="M29.38,64.18c0.01,1.19,0.01,2.38,0.02,3.57c-0.68,0-1.36,0-2.04,0.01c-0.17,0-0.21-0.07-0.21-0.22
			c0.01-1.12,0.01-2.25,0.01-3.37C27.9,64.17,28.64,64.17,29.38,64.18z"/>
		<path class="st151" d="M36.79,55.13c-0.13-0.04-0.09-0.15-0.09-0.24c0-1.13,0-15.59,0-16.71c0-0.09-0.03-0.2,0.1-0.24
			C36.79,39.23,36.79,53.85,36.79,55.13z"/>
		<path class="st150" d="M34.53,42.23h-1.42c0,0,0-1.41,0.03-2.22c0.06-0.41,0.34-0.62,0.69-0.6c0.39,0.02,0.67,0.29,0.68,0.72
			C34.54,40.48,34.53,41.91,34.53,42.23z"/>
		<path class="st150" d="M56.96,50.56h-1.42c0,0,0-1.41,0.03-2.22c0.06-0.41,0.34-0.62,0.69-0.6c0.39,0.02,0.67,0.29,0.68,0.72
			C56.97,48.8,56.96,50.23,56.96,50.56z"/>
		<polygon class="st2" points="38.4,55.13 51.76,55.13 45.08,49.62 		"/>
		<polygon class="st14" points="39.54,55.13 50.62,55.13 45.08,50.56 		"/>
	</g>
</g>
<g id="Layer_9">
</g>
<g id="Layer_7" class="st4">
</g>
<g id="Layer_10">
</g>
<g id="Layer_11">
</g>
</svg>
