<svg xmlns="http://www.w3.org/2000/svg" viewBox="0 0 14.12 25.87"><defs><style type="text/css">.phonea{fill:#05ce7c;}.phoneb{fill:none;}.phonec{fill:#fff;}</style></defs><path class="phonea" d="M12.15,0H2A2,2,0,0,0,0,2H0v22a2,2,0,0,0,2,2H12.15a2,2,0,0,0,2-2h0V2a2,2,0,0,0-2-2Z"/><rect class="phoneb" x="1.7" y="3.66" width="10.71" height="17.9"/><rect class="phonec" x="1.44" y="3.4" width="11.24" height="18.42"/><path class="phonec" d="M7.06,22.2a1.23,1.23,0,1,0,1.22,1.22h0A1.22,1.22,0,0,0,7.06,22.2Z"/><path class="phonec" d="M5.51,2.35h3.1a.13.13,0,0,0,.16-.1.15.15,0,0,0-.11-.16H5.51a.13.13,0,0,0-.16.11.13.13,0,0,0,.1.15Z"/></svg>