<?xml version="1.0" encoding="utf-8"?>
<!-- Generator: Adobe Illustrator 24.1.2, SVG Export Plug-In . SVG Version: 6.00 Build 0)  -->
<svg version="1.1" xmlns="http://www.w3.org/2000/svg" xmlns:xlink="http://www.w3.org/1999/xlink" x="0px" y="0px"
	 viewBox="0 0 89.33 83.94" style="enable-background:new 0 0 89.33 83.94;" xml:space="preserve">
<style type="text/css">
	.st0{fill:#05CE7C;}
	.st1{fill:none;stroke:#05CE7C;stroke-miterlimit:10;}
	.st2{fill:#042F57;}
	.st3{fill:none;stroke:#05CE7C;stroke-width:2;stroke-miterlimit:10;}
	.st4{display:none;}
	.st5{display:inline;}
	.st6{display:inline;fill:#042F57;stroke:#FFFFFF;stroke-miterlimit:10;}
	.st7{display:inline;fill:#042F57;}
	.st8{display:inline;fill:none;stroke:#05CE7C;stroke-width:2;stroke-miterlimit:10;}
	.st9{display:inline;fill:none;stroke:#153056;stroke-miterlimit:10;}
	.st10{opacity:0.1;fill:#05CE7C;}
	.st11{fill:none;stroke:#05CE7C;stroke-width:0.5;stroke-miterlimit:10;}
	.st12{clip-path:url(#SVGID_2_);}
	.st13{fill:#CBDBFE;}
	.st14{fill:#FFFFFF;}
	.st15{fill:#F2F2F2;}
	.st16{fill:#FEFEFE;}
	.st17{fill:#F1F1F1;}
	.st18{fill:#F2F3F3;}
	.st19{fill:#DDDEDE;}
	.st20{fill:#F3F3F3;}
	.st21{fill:#F3F4F4;}
	.st22{fill:#CFD1D1;}
	.st23{fill:#DBDCDB;}
	.st24{fill:#D8D9D8;}
	.st25{fill:#DFE0DF;}
	.st26{fill:#ECEDED;}
	.st27{fill:#F7F7F6;}
	.st28{fill:#BDBEC0;}
	.st29{fill:#F2F3F2;}
	.st30{fill:#F3F3F2;}
	.st31{fill:#F4F4F3;}
	.st32{fill:#F7F7F7;}
	.st33{fill:#F1F2F2;}
	.st34{fill:#E0E1E1;}
	.st35{fill:#F4F4F4;}
	.st36{fill:#F5F5F5;}
	.st37{fill:#EDEEEE;}
	.st38{fill:#F6F6F6;}
	.st39{fill:#F4F5F5;}
	.st40{fill:#DBDCDC;}
	.st41{fill:#D9DAD9;}
	.st42{fill:#EAEBEA;}
	.st43{fill:#EEF2FD;}
	.st44{fill:#D0DCF8;}
	.st45{fill:#96A9DC;}
	.st46{fill:#99ABDC;}
	.st47{fill:#96AADC;}
	.st48{fill:#98ABDD;}
	.st49{fill:#F7F8FC;}
	.st50{fill:#EDF1FD;}
	.st51{fill:#EBEFFA;}
	.st52{fill:#BCBDC1;}
	.st53{fill:#CED0D5;}
	.st54{fill:#BDC0C8;}
	.st55{fill:#BDC4D3;}
	.st56{fill:#BABFCB;}
	.st57{fill:#D7D8D7;}
	.st58{fill:#DDDEDD;}
	.st59{fill:#D9DADA;}
	.st60{fill:#D5D6D5;}
	.st61{fill:#DADBDB;}
	.st62{fill:#DADBDA;}
	.st63{fill:#D3D4D3;}
	.st64{fill:#D6D7D6;}
	.st65{fill:#D2D3D2;}
	.st66{fill:#D1D2D1;}
	.st67{fill:#D0D1D0;}
	.st68{fill:#D4D5D4;}
	.st69{fill:#E5E6E6;}
	.st70{fill:#D4D5D5;}
	.st71{fill:#DCDDDC;}
	.st72{fill:#DADADA;}
	.st73{fill:#D9D9D9;}
	.st74{fill:#D8D8D8;}
	.st75{fill:#D7D7D7;}
	.st76{fill:#D8D9D9;}
	.st77{fill:#D3D4D4;}
	.st78{fill:#D7D8D8;}
	.st79{fill:#DDDDDD;}
	.st80{fill:#D5D6D6;}
	.st81{fill:#E6E6E6;}
	.st82{fill:#FEFBF2;}
	.st83{fill:#DCDDDD;}
	.st84{fill:#CFD0CF;}
	.st85{fill:#D0D1D1;}
	.st86{fill:#D2D3D3;}
	.st87{fill:#D1D2D2;}
	.st88{fill:#FCFCFD;}
	.st89{fill:#D3D5DA;}
	.st90{fill:#C5C6C6;}
	.st91{fill:#C9C9CA;}
	.st92{fill:#C6C6C7;}
	.st93{fill:#CCDBFD;}
	.st94{fill:#C7C7C7;}
	.st95{fill:#C5C5C6;}
	.st96{fill:#C7C7C8;}
	.st97{fill:#F6F7FC;}
	.st98{fill:#F9FAFD;}
	.st99{fill:#F8F8FB;}
	.st100{fill:#C4C6CA;}
	.st101{fill:#F8F8FC;}
	.st102{fill:#F9F9FD;}
	.st103{fill:#CACACB;}
	.st104{fill:#CCDBFC;}
	.st105{fill:#C8C8C9;}
	.st106{fill:#C5C7CC;}
	.st107{fill:#D7D7D9;}
	.st108{fill:#D1DFFD;}
	.st109{fill:#D2D3D4;}
	.st110{fill:#E9ECF5;}
	.st111{fill:#CECECF;}
	.st112{fill:#D2D4DA;}
	.st113{fill:#EEF2FE;}
	.st114{fill:#C9D9FC;}
	.st115{fill:#BABFCC;}
	.st116{fill:#C8D8FA;}
	.st117{fill:#CADAFB;}
	.st118{fill:#BABEC5;}
	.st119{fill:#CFCFD1;}
	.st120{fill:#98ADE0;}
	.st121{fill:#96ABDE;}
	.st122{fill:#99AEE0;}
	.st123{fill:#97ADDF;}
	.st124{fill:#9BB0E2;}
	.st125{fill:#97ACDF;}
	.st126{fill:#EAEEFA;}
	.st127{fill:#EDF1FC;}
	.st128{fill:#ECF0FB;}
	.st129{fill:#EAEEF9;}
	.st130{fill:#E5E8F0;}
	.st131{fill:#D0D0D2;}
	.st132{fill:#E6E9F2;}
	.st133{fill:#F5F5FA;}
	.st134{fill:#C8C8C8;}
	.st135{fill:#E1E2E6;}
	.st136{fill:#C9D9FB;}
	.st137{fill:#C9D9FD;}
	.st138{fill:#C7D8FC;}
	.st139{fill:#C2D3F9;}
	.st140{fill:#EBEEF9;}
	.st141{fill:none;stroke:#000000;stroke-miterlimit:10;}
	.st142{opacity:0.5;}
	.st143{fill:#059E86;}
	.st144{fill:none;stroke:#042F57;stroke-miterlimit:10;}
	.st145{fill:#DA3AB3;}
	.st146{fill-rule:evenodd;clip-rule:evenodd;fill:#042F57;stroke:#FFFFFF;stroke-width:1.5;stroke-miterlimit:10;}
	.st147{fill:none;stroke:#46B978;stroke-miterlimit:10;}
	.st148{fill:none;}
	.st149{fill-rule:evenodd;clip-rule:evenodd;fill:#05CE7C;}
	.st150{fill:none;stroke:#042F57;stroke-width:0.5;stroke-miterlimit:10;}
	.st151{fill:#042F57;stroke:#042F57;stroke-width:0.5;stroke-miterlimit:10;}
	.st152{fill:#163056;}
	.st153{fill:none;stroke:#163056;stroke-miterlimit:10;}
	.st154{fill:#042F57;stroke:#042F57;stroke-width:0.25;stroke-miterlimit:10;}
	.st155{opacity:0.8;fill:#042F57;}
	.st156{display:inline;fill:none;stroke:#042F57;stroke-miterlimit:10;}
	.st157{fill:none;stroke:#FFFFFF;stroke-miterlimit:10;}
	.st158{fill:#FFFFFF;stroke:#FFFFFF;stroke-width:0.25;stroke-miterlimit:10;}
</style>
<g id="Layer_8">
</g>
<g id="Layer_2" class="st4">
</g>
<g id="Layer_6" class="st4">
</g>
<g id="Layer_3" class="st4">
</g>
<g id="Layer_4">
</g>
<g id="Layer_5">
	<g>
		<path class="st144" d="M48.86,71.02v-2.88c0-6.56-5.37-11.92-11.92-11.92h-2.85v14.8c0,0,0.69,0,0.97,0h23.08"/>
		<path class="st144" d="M37.8,56.22V17.61h1.94v21c0,1.5,0.65,2.52,1.74,3.24c0,0,2.04,1.28,2.67,1.77
			c0.46,0.36,1.74,1.58,1.74,1.58"/>
		<path class="st144" d="M58.13,64.7c0.65-2.27,0.87-35.73,0.84-40.24c-0.09-11.82-0.12-12.34-0.12-12.34l-17.27,0.05
			c0,0,0.2,3.19,0.1,11.21c-0.06,4.76-0.66,6.22-0.16,10.5c0.22,1.89,0.47,4.02,1.4,6.38c1.78,4.55,4.84,6.83,6.96,8.91
			C52.72,51.97,56.1,56.64,58.13,64.7"/>
		<line class="st144" x1="58.13" y1="71.51" x2="58.13" y2="64.7"/>
		<line class="st144" x1="39.74" y1="17.61" x2="41.7" y2="17.61"/>
		<line class="st144" x1="39.74" y1="21.43" x2="41.7" y2="21.43"/>
		<line class="st144" x1="39.74" y1="34.43" x2="41.7" y2="34.43"/>
		<line class="st144" x1="39.74" y1="27.93" x2="41.44" y2="27.93"/>
	</g>
	<path class="st2" d="M47.08,16.95h7.65c0.27,0,0.54-0.2,0.54-0.54s-0.27-0.47-0.54-0.47h-7.65c-0.27,0-0.54,0.2-0.54,0.54
		C46.54,16.82,46.81,16.95,47.08,16.95z"/>
	<path class="st2" d="M47.08,20.15h7.65c0.27,0,0.54-0.2,0.54-0.54c0-0.34-0.27-0.47-0.54-0.47h-7.65c-0.27,0-0.54,0.2-0.54,0.54
		S46.81,20.15,47.08,20.15z"/>
	<path class="st2" d="M47.08,23.35h7.65c0.27,0,0.54-0.2,0.54-0.54s-0.27-0.47-0.54-0.47h-7.65c-0.27,0-0.54,0.2-0.54,0.54
		C46.54,23.22,46.81,23.35,47.08,23.35z"/>
	<path class="st2" d="M47.08,26.55h7.65c0.27,0,0.54-0.2,0.54-0.54s-0.27-0.47-0.54-0.47h-7.65c-0.27,0-0.54,0.2-0.54,0.54
		S46.81,26.55,47.08,26.55z"/>
	<path class="st2" d="M47.08,30.33h7.65c0.27,0,0.54-0.2,0.54-0.54s-0.27-0.47-0.54-0.47h-7.65c-0.27,0-0.54,0.2-0.54,0.54
		C46.54,30.19,46.81,30.33,47.08,30.33z"/>
	<path class="st2" d="M47.08,34.1h7.65c0.27,0,0.54-0.2,0.54-0.54S55,33.1,54.73,33.1h-7.65c-0.27,0-0.54,0.2-0.54,0.54
		C46.54,33.97,46.81,34.1,47.08,34.1z"/>
	<path class="st2" d="M47.08,37.84h7.65c0.27,0,0.54-0.2,0.54-0.54c0-0.34-0.27-0.47-0.54-0.47h-7.65c-0.27,0-0.54,0.2-0.54,0.54
		S46.81,37.84,47.08,37.84z"/>
	<path class="st2" d="M47.08,41.67h7.65c0.27,0,0.54-0.2,0.54-0.54s-0.27-0.47-0.54-0.47h-7.65c-0.27,0-0.54,0.2-0.54,0.54
		C46.54,41.53,46.81,41.67,47.08,41.67z"/>
	<path class="st2" d="M52.89,71.03c0.56,0,1.11,0,1.7,0c0-1.07,0-2.11,0-3.17c-0.58,0-1.14,0-1.7,0
		C52.89,68.92,52.89,69.99,52.89,71.03z"/>
	<path class="st2" d="M37.93,59.27c-0.57,0-1.12,0-1.66,0c0,0.34,0,0.66,0,0.97c0.54,0,1.08,0,1.66,0
		C37.93,59.92,37.93,59.59,37.93,59.27z"/>
	<path class="st2" d="M46.25,68.1c0-0.34,0-0.66,0-0.98c-0.57,0-1.12,0-1.66,0c0,0.34,0,0.66,0,0.98
		C45.14,68.1,45.68,68.1,46.25,68.1z"/>
	<path class="st2" d="M40.44,68.1c0.57,0,1.12,0,1.69,0c0-0.34,0-0.64,0-0.98c-0.57,0-1.12,0-1.69,0
		C40.44,67.46,40.44,67.78,40.44,68.1z"/>
	<path class="st2" d="M37.74,67.07c-0.61,0-1.18,0-1.75,0c0,0.36,0,0.69,0,1.03c0.61,0,1.18,0,1.75,0
		C37.74,67.75,37.74,67.41,37.74,67.07z"/>
	<path class="st2" d="M46.25,64.17c0-0.36,0-0.71,0-1.05c-0.54,0-1.12,0-1.66,0c0,0.36,0,0.71,0,1.05
		C45.17,64.17,45.71,64.17,46.25,64.17z"/>
	<path class="st2" d="M40.39,62.83c0,0.38,0,0.75,0,1.11c0.57,0,1.18,0,1.75,0c0-0.38,0-0.75,0-1.11
		C41.53,62.83,40.96,62.83,40.39,62.83z"/>
	<path class="st2" d="M37.93,64.17c0-0.36,0-0.71,0-1.05c-0.54,0-1.12,0-1.66,0c0,0.36,0,0.71,0,1.05
		C36.85,64.17,37.39,64.17,37.93,64.17z"/>
	<path class="st2" d="M40.44,60.24c0.57,0,1.12,0,1.69,0c0-0.32,0-0.64,0-0.97c-0.57,0-1.12,0-1.69,0
		C40.44,59.6,40.44,59.92,40.44,60.24z"/>
</g>
<g id="Guides">
</g>
<g id="Layer_9">
</g>
<g id="Layer_7" class="st4">
</g>
<g id="Layer_10">
</g>
<g id="Layer_11">
</g>
</svg>
