<?xml version="1.0" encoding="utf-8"?>
<!-- Generator: Adobe Illustrator 24.1.2, SVG Export Plug-In . SVG Version: 6.00 Build 0)  -->
<svg version="1.1" xmlns="http://www.w3.org/2000/svg" xmlns:xlink="http://www.w3.org/1999/xlink" x="0px" y="0px"
	 viewBox="0 0 89.33 83.94" style="enable-background:new 0 0 89.33 83.94;" xml:space="preserve">
<style type="text/css">
	.st0{fill:#05CE7C;}
	.st1{fill:none;stroke:#05CE7C;stroke-miterlimit:10;}
	.st2{fill:#042F57;}
	.st3{fill:none;stroke:#05CE7C;stroke-width:2;stroke-miterlimit:10;}
	.st4{display:none;}
	.st5{display:inline;}
	.st6{display:inline;fill:#042F57;stroke:#FFFFFF;stroke-miterlimit:10;}
	.st7{display:inline;fill:#042F57;}
	.st8{display:inline;fill:none;stroke:#05CE7C;stroke-width:2;stroke-miterlimit:10;}
	.st9{display:inline;fill:none;stroke:#153056;stroke-miterlimit:10;}
	.st10{opacity:0.1;fill:#05CE7C;}
	.st11{fill:none;stroke:#05CE7C;stroke-width:0.5;stroke-miterlimit:10;}
	.st12{clip-path:url(#SVGID_2_);}
	.st13{fill:#CBDBFE;}
	.st14{fill:#FFFFFF;}
	.st15{fill:#F2F2F2;}
	.st16{fill:#FEFEFE;}
	.st17{fill:#F1F1F1;}
	.st18{fill:#F2F3F3;}
	.st19{fill:#DDDEDE;}
	.st20{fill:#F3F3F3;}
	.st21{fill:#F3F4F4;}
	.st22{fill:#CFD1D1;}
	.st23{fill:#DBDCDB;}
	.st24{fill:#D8D9D8;}
	.st25{fill:#DFE0DF;}
	.st26{fill:#ECEDED;}
	.st27{fill:#F7F7F6;}
	.st28{fill:#BDBEC0;}
	.st29{fill:#F2F3F2;}
	.st30{fill:#F3F3F2;}
	.st31{fill:#F4F4F3;}
	.st32{fill:#F7F7F7;}
	.st33{fill:#F1F2F2;}
	.st34{fill:#E0E1E1;}
	.st35{fill:#F4F4F4;}
	.st36{fill:#F5F5F5;}
	.st37{fill:#EDEEEE;}
	.st38{fill:#F6F6F6;}
	.st39{fill:#F4F5F5;}
	.st40{fill:#DBDCDC;}
	.st41{fill:#D9DAD9;}
	.st42{fill:#EAEBEA;}
	.st43{fill:#EEF2FD;}
	.st44{fill:#D0DCF8;}
	.st45{fill:#96A9DC;}
	.st46{fill:#99ABDC;}
	.st47{fill:#96AADC;}
	.st48{fill:#98ABDD;}
	.st49{fill:#F7F8FC;}
	.st50{fill:#EDF1FD;}
	.st51{fill:#EBEFFA;}
	.st52{fill:#BCBDC1;}
	.st53{fill:#CED0D5;}
	.st54{fill:#BDC0C8;}
	.st55{fill:#BDC4D3;}
	.st56{fill:#BABFCB;}
	.st57{fill:#D7D8D7;}
	.st58{fill:#DDDEDD;}
	.st59{fill:#D9DADA;}
	.st60{fill:#D5D6D5;}
	.st61{fill:#DADBDB;}
	.st62{fill:#DADBDA;}
	.st63{fill:#D3D4D3;}
	.st64{fill:#D6D7D6;}
	.st65{fill:#D2D3D2;}
	.st66{fill:#D1D2D1;}
	.st67{fill:#D0D1D0;}
	.st68{fill:#D4D5D4;}
	.st69{fill:#E5E6E6;}
	.st70{fill:#D4D5D5;}
	.st71{fill:#DCDDDC;}
	.st72{fill:#DADADA;}
	.st73{fill:#D9D9D9;}
	.st74{fill:#D8D8D8;}
	.st75{fill:#D7D7D7;}
	.st76{fill:#D8D9D9;}
	.st77{fill:#D3D4D4;}
	.st78{fill:#D7D8D8;}
	.st79{fill:#DDDDDD;}
	.st80{fill:#D5D6D6;}
	.st81{fill:#E6E6E6;}
	.st82{fill:#FEFBF2;}
	.st83{fill:#DCDDDD;}
	.st84{fill:#CFD0CF;}
	.st85{fill:#D0D1D1;}
	.st86{fill:#D2D3D3;}
	.st87{fill:#D1D2D2;}
	.st88{fill:#FCFCFD;}
	.st89{fill:#D3D5DA;}
	.st90{fill:#C5C6C6;}
	.st91{fill:#C9C9CA;}
	.st92{fill:#C6C6C7;}
	.st93{fill:#CCDBFD;}
	.st94{fill:#C7C7C7;}
	.st95{fill:#C5C5C6;}
	.st96{fill:#C7C7C8;}
	.st97{fill:#F6F7FC;}
	.st98{fill:#F9FAFD;}
	.st99{fill:#F8F8FB;}
	.st100{fill:#C4C6CA;}
	.st101{fill:#F8F8FC;}
	.st102{fill:#F9F9FD;}
	.st103{fill:#CACACB;}
	.st104{fill:#CCDBFC;}
	.st105{fill:#C8C8C9;}
	.st106{fill:#C5C7CC;}
	.st107{fill:#D7D7D9;}
	.st108{fill:#D1DFFD;}
	.st109{fill:#D2D3D4;}
	.st110{fill:#E9ECF5;}
	.st111{fill:#CECECF;}
	.st112{fill:#D2D4DA;}
	.st113{fill:#EEF2FE;}
	.st114{fill:#C9D9FC;}
	.st115{fill:#BABFCC;}
	.st116{fill:#C8D8FA;}
	.st117{fill:#CADAFB;}
	.st118{fill:#BABEC5;}
	.st119{fill:#CFCFD1;}
	.st120{fill:#98ADE0;}
	.st121{fill:#96ABDE;}
	.st122{fill:#99AEE0;}
	.st123{fill:#97ADDF;}
	.st124{fill:#9BB0E2;}
	.st125{fill:#97ACDF;}
	.st126{fill:#EAEEFA;}
	.st127{fill:#EDF1FC;}
	.st128{fill:#ECF0FB;}
	.st129{fill:#EAEEF9;}
	.st130{fill:#E5E8F0;}
	.st131{fill:#D0D0D2;}
	.st132{fill:#E6E9F2;}
	.st133{fill:#F5F5FA;}
	.st134{fill:#C8C8C8;}
	.st135{fill:#E1E2E6;}
	.st136{fill:#C9D9FB;}
	.st137{fill:#C9D9FD;}
	.st138{fill:#C7D8FC;}
	.st139{fill:#C2D3F9;}
	.st140{fill:#EBEEF9;}
	.st141{fill:none;stroke:#000000;stroke-miterlimit:10;}
	.st142{opacity:0.5;}
	.st143{fill:#059E86;}
	.st144{fill:none;stroke:#042F57;stroke-miterlimit:10;}
	.st145{fill:#DA3AB3;}
	.st146{fill-rule:evenodd;clip-rule:evenodd;fill:#042F57;stroke:#FFFFFF;stroke-width:1.5;stroke-miterlimit:10;}
	.st147{fill:none;stroke:#46B978;stroke-miterlimit:10;}
	.st148{fill:none;}
	.st149{fill-rule:evenodd;clip-rule:evenodd;fill:#05CE7C;}
	.st150{fill:none;stroke:#042F57;stroke-width:0.5;stroke-miterlimit:10;}
	.st151{fill:#042F57;stroke:#042F57;stroke-width:0.5;stroke-miterlimit:10;}
	.st152{fill:#163056;}
	.st153{fill:none;stroke:#163056;stroke-miterlimit:10;}
	.st154{fill:#042F57;stroke:#042F57;stroke-width:0.25;stroke-miterlimit:10;}
	.st155{opacity:0.8;fill:#042F57;}
	.st156{display:inline;fill:none;stroke:#042F57;stroke-miterlimit:10;}
	.st157{fill:none;stroke:#FFFFFF;stroke-miterlimit:10;}
	.st158{fill:#FFFFFF;stroke:#FFFFFF;stroke-width:0.25;stroke-miterlimit:10;}
</style>
<g id="Layer_8">
</g>
<g id="Layer_2" class="st4">
</g>
<g id="Layer_6" class="st4">
</g>
<g id="Layer_3" class="st4">
</g>
<g id="Layer_4">
</g>
<g id="Layer_5">
</g>
<g id="Guides">
	<g>
		<path class="st2" d="M38.83,41.9h0.04c0.52-0.04,1-0.09,1.57-0.13c0.26,0,0.44-0.22,0.39-0.48c0-0.26-0.22-0.44-0.48-0.39
			c-0.52,0.04-1.05,0.09-1.57,0.13c-0.22,0.04-0.44,0.22-0.39,0.48C38.4,41.73,38.57,41.9,38.83,41.9z"/>
		<path class="st2" d="M41.54,46.96c0.96-1.35,2.53-2.22,4.32-2.22s3.36,0.87,4.32,2.22c0.31-0.04,0.65-0.09,0.96-0.13
			c-1.09-1.79-3.05-2.97-5.28-2.97s-4.19,1.18-5.28,2.97C40.88,46.87,41.23,46.92,41.54,46.96z"/>
		<path class="st2" d="M31.68,47.96v10.64c0,0.26,0.17,0.44,0.44,0.44c0.26,0,0.44-0.17,0.44-0.44V47.96c0-0.26-0.17-0.44-0.44-0.44
			C31.85,47.53,31.68,47.75,31.68,47.96z"/>
		<path class="st2" d="M29.63,56.56c0.26,0,0.44-0.17,0.44-0.44V45.09c3.18,1.48,6.54,2.53,9.94,3.05
			c-0.13,0.35-0.22,0.74-0.26,1.09c-0.7,0.04-1.26,0.65-1.26,1.35v0.65h-0.13c-0.26,0-0.44,0.17-0.44,0.44v2.14
			c0,0.26,0.17,0.44,0.44,0.44h0.13v0.65c0,0.74,0.61,1.4,1.4,1.4h0.22c0.44,1.4,1.26,2.79,2.31,3.79c0,0.31-0.04,1.66-1.7,2.79
			c0.39,0.04,0.79,0.13,1.22,0.17c0.87-0.83,1.18-1.7,1.31-2.31c0.79,0.57,1.7,0.87,2.66,0.87c0.96,0,1.88-0.35,2.66-0.87
			c0.13,0.61,0.44,1.48,1.31,2.31c0.39-0.04,0.79-0.09,1.18-0.17c-1.61-1.13-1.7-2.49-1.66-2.79c1.05-1,1.88-2.4,2.31-3.79h0.22
			c0.74,0,1.4-0.61,1.4-1.4v-0.65h0.22c0.26,0,0.44-0.17,0.44-0.44v-2.14c0-0.26-0.17-0.44-0.44-0.44h-0.22v-0.65
			c0-0.7-0.57-1.31-1.26-1.35c-0.04-0.39-0.13-0.74-0.26-1.09c3.62-0.57,7.15-1.7,10.55-3.36c0.17-0.09,0.26-0.26,0.22-0.44
			c0-0.09,0-0.17-0.04-0.31c-1.13-1.79-6.59-2.62-8.85-2.88c-0.26-0.04-0.44,0.13-0.48,0.39c-0.04,0.22,0.13,0.44,0.39,0.48
			c4.58,0.52,7.02,1.44,7.94,2.14c-9.99,4.71-21.37,4.71-31.36-0.09c0.22-0.52,1.96-1.4,6.19-2.01c0.22-0.04,0.39-0.26,0.35-0.48
			s-0.26-0.39-0.48-0.35c-4.45,0.65-6.8,1.61-6.93,2.88c0,0.04-0.04,0.09-0.04,0.13v11.86C29.19,56.38,29.37,56.56,29.63,56.56z
			 M45.85,60.79c-2.18,0-4.06-2.22-4.88-4.49h2.97c0.17,0,0.31-0.09,0.39-0.26v-0.04l0.96-1.61c0.13-0.26,0.35-0.35,0.57-0.35
			c0.22,0,0.44,0.13,0.57,0.35l0.92,1.61l0.04,0.09c0.09,0.13,0.22,0.26,0.39,0.26h2.97C49.91,58.52,48.03,60.79,45.85,60.79z
			 M40.84,48.27c1.66,0.22,3.31,0.35,5.02,0.35c1.66,0,3.36-0.13,5.02-0.35c0.13,0.31,0.17,0.61,0.26,0.96H40.62
			C40.66,48.88,40.75,48.57,40.84,48.27z M51.57,50.1h0.26c0.26,0,0.52,0.22,0.52,0.52v4.27c0,0.26-0.22,0.52-0.52,0.52H51.3h-3.27
			l-0.87-1.48c-0.26-0.48-0.79-0.79-1.31-0.79l0,0c-0.57,0-1.05,0.31-1.31,0.79l-0.87,1.48H40.4h-0.52c-0.26,0-0.52-0.22-0.52-0.52
			v-0.52l2.14-1.31c0.09-0.04,0.09-0.13,0.04-0.22c-0.04-0.09-0.13-0.09-0.22-0.04l-1.96,1.22v-0.61l2.14-1.31
			c0.09-0.04,0.09-0.13,0.04-0.22c-0.04-0.09-0.13-0.09-0.22-0.04l-1.96,1.22v-2.4c0-0.26,0.22-0.52,0.52-0.52h0.26h11.43V50.1z"/>
		<path class="st2" d="M62.08,47.66c-0.26,0-0.44,0.17-0.44,0.44v11.78c-3.05,1.7-6.37,2.88-9.73,3.53
			c-0.44,0.09-0.92,0.17-1.4,0.22c-3.1,0.44-6.28,0.44-9.38,0c-0.48-0.09-0.92-0.13-1.4-0.22c-3.45-0.65-6.8-1.88-9.94-3.66
			c-0.17-0.09-0.35-0.09-0.48,0.04c-0.04,0.04-0.09,0.09-0.13,0.13c-0.13,0.22-0.04,0.48,0.17,0.61c2.79,1.57,5.76,2.75,8.81,3.45
			c-0.39,0.09-0.83,0.22-1.31,0.26c-6.54,1.05-6.41,7.68-6.41,7.76c0,0.22,0.22,0.44,0.44,0.44l0,0c0.26,0,0.44-0.22,0.44-0.44
			c0-0.26-0.13-5.89,5.67-6.85c1.18-0.17,2.09-0.48,2.88-0.79c1.96,0.35,3.97,0.52,5.93,0.52c2.01,0,3.97-0.17,5.98-0.52
			c0.79,0.35,1.7,0.61,2.88,0.79c5.8,0.92,5.71,6.59,5.67,6.85c0,0.26,0.17,0.44,0.44,0.44l0,0c0.22,0,0.44-0.17,0.44-0.44
			c0-0.09,0.17-6.67-6.41-7.72c-0.48-0.09-0.92-0.17-1.31-0.26c3.05-0.7,6.02-1.88,8.81-3.45c0,0,0.04,0,0.04-0.04
			c0.04,0,0.04-0.04,0.09-0.09l0.04-0.04c0-0.04,0.04-0.04,0.04-0.09v-0.04c0-0.04,0-0.04,0-0.09V48.09
			C62.51,47.88,62.34,47.66,62.08,47.66z"/>
	</g>
</g>
<g id="Layer_9">
</g>
<g id="Layer_7" class="st4">
</g>
<g id="Layer_10">
</g>
<g id="Layer_11">
</g>
</svg>
