<svg xmlns="http://www.w3.org/2000/svg" viewBox="0 0 21.1 27.6"><defs><style>.a{fill:none;stroke:#47b978;stroke-linecap:round;stroke-linejoin:round;}</style></defs><path class="a" d="M1.2.5h0V11.4h0l.6-.8A4.3,4.3,0,0,1,4.7,9.1a3.9,3.9,0,0,1,3,.6,4.4,4.4,0,0,1,2,2.5,4.7,4.7,0,0,1,0,3.1,4.7,4.7,0,0,1-5.2,2.9A4.6,4.6,0,0,1,.7,13.7V.6h.5Zm4.1,9a4.1,4.1,0,0,0-2.9,1.3,3.8,3.8,0,0,0-1.2,2.9,4,4,0,0,0,1.2,2.9,4,4,0,0,0,2.9,1.2,3.8,3.8,0,0,0,2.9-1.2,4,4,0,0,0,1.2-2.9,3.8,3.8,0,0,0-1.2-2.9A3.9,3.9,0,0,0,5.3,9.5Z"/><path class="a" d="M20.5,13.7v8.8a4.8,4.8,0,0,1-2,3.8,4.7,4.7,0,0,1-7.2-2.8,1.3,1.3,0,0,0-.1-.6v-.4h.5a.6.6,0,0,0,.1.4,3.4,3.4,0,0,0,.7,1.9,3.9,3.9,0,0,0,1.7,1.4,3.6,3.6,0,0,0,2,.3A4.1,4.1,0,0,0,19.7,24a3,3,0,0,0,.2-1,.7.7,0,0,0,.1-.5V16.1h0l-.3.5a4.6,4.6,0,0,1-3.8,2,5.2,5.2,0,0,1-2.1-.4,7.5,7.5,0,0,1-1.7-1.4,4.8,4.8,0,0,1-.7-4.2,4.3,4.3,0,0,1,3-3,4.3,4.3,0,0,1,4.1.6A4.3,4.3,0,0,1,20.5,13.7Zm-4.6,4.1a4.2,4.2,0,0,0,2.9-1.2A4.5,4.5,0,0,0,20,13.7a4.3,4.3,0,0,0-4.1-4.2,4.3,4.3,0,0,0-3,1.3,4.3,4.3,0,0,0-1.2,2.9,4.5,4.5,0,0,0,1.2,2.9A4.2,4.2,0,0,0,15.9,17.8Z"/></svg>