<svg xmlns="http://www.w3.org/2000/svg" viewBox="0 0 20.8 27.8"><defs><style>.a,.b{fill:#606161;stroke:#606161;stroke-linejoin:round;}.b{stroke-linecap:round;}</style></defs><path class="a" d="M1,14.7a4.2,4.2,0,0,0,2.7,3.6l1,.2h.4v.3H5a4.9,4.9,0,0,1-2.4-.8A4.4,4.4,0,0,1,1,16.6a5.9,5.9,0,0,1-.5-2.3,4.7,4.7,0,0,1,2.3-3.9,4.8,4.8,0,0,1,4.5-.1A4.7,4.7,0,0,1,9.8,14v.6H1Zm0-.5H9.2a1.3,1.3,0,0,0-.1-.6,6.1,6.1,0,0,0-.5-1.2,4.2,4.2,0,0,0-4.5-1.8A4.3,4.3,0,0,0,1,14.2Z"/><path class="b" d="M11.6,12.3A4.5,4.5,0,0,1,17,10a4.5,4.5,0,0,1,2.6,1.9,3.5,3.5,0,0,1,.6,1.4,2.2,2.2,0,0,1,.1.8v4.7h-.5V14.1a.8.8,0,0,0-.1-.4,3.7,3.7,0,0,0-1.6-2.6,4.3,4.3,0,0,0-2.9-.8,4.5,4.5,0,0,0-2.8,1.6,6.1,6.1,0,0,0-.7,1.4,2,2,0,0,0-.1.7v4.7H11V10.1h.6v2.2Z"/></svg>