<svg xmlns="http://www.w3.org/2000/svg" viewBox="0 0 100.5 30.6"><defs><style>.a{fill:#eeedee;}.b{fill:#369683;}</style></defs><rect class="a" x="-128.5" y="-59.9" width="1920" height="1080"/><path class="b" d="M65.6,15.7V30.3H63.8V14.6a14,14,0,0,0-4.7-9.3,14,14,0,0,0-19.5.9,14,14,0,0,0-3.7,9.5V30.6H34.1V1h1.8V8.4h0c0-.1.1-.1.1-.2V8l.4-.6c.4-.7,1-1.4,1.5-2.1a17.4,17.4,0,0,1,4.3-3.4A15.8,15.8,0,0,1,65.6,15.7Z"/><path class="b" d="M15.3,30.6H0V0H15.6a14.5,14.5,0,0,1,6.5,1.6A15.4,15.4,0,0,1,30.3,12a15.7,15.7,0,0,1-3.1,12.9A15.3,15.3,0,0,1,15.3,30.6Zm0-1.8a13.3,13.3,0,0,0,10.5-5A13.5,13.5,0,0,0,21.3,3.2a14.4,14.4,0,0,0-5.4-1.4H1.8v27H15.3Z"/><path class="b" d="M0,30.6V0H15.3A15,15,0,0,1,26.1,4.5a15,15,0,0,1,4.5,10.8,15.3,15.3,0,0,1-4.5,10.8,15,15,0,0,1-10.8,4.5Zm15.3-1.8a13.8,13.8,0,0,0,9.6-3.9,13.8,13.8,0,0,0,0-19.2,13.8,13.8,0,0,0-9.6-3.9H1.8v27Z"/><path class="b" d="M65.6,15.7A15.9,15.9,0,0,0,53.6.4,15.7,15.7,0,0,0,35.9,8.5V.9H34.1V30.6h1.8V15.7A13.4,13.4,0,0,1,40,5.9a13.4,13.4,0,0,1,9.8-4.1,13.7,13.7,0,0,1,9.9,4.1,13.9,13.9,0,0,1,4.1,9.8V30.6h1.8Z"/><path class="b" d="M98.8,16.6H70.9V30.4H69.1V16a14.8,14.8,0,0,1,.1-2.1,15.1,15.1,0,0,1,3.4-8.1A16,16,0,0,1,80,.7,17.1,17.1,0,0,1,88.1.3,15.9,15.9,0,0,1,100,11.7a17.4,17.4,0,0,1,.5,2.2c0,.8.1,1.3.1,2.1V30.4H98.8v-14Zm-14-1.8H98.7v-.2c0-.4-.1-.7-.1-1a11.7,11.7,0,0,0-.5-2A14,14,0,0,0,84.8,1.8a13.7,13.7,0,0,0-13.2,9.6,11.7,11.7,0,0,0-.6,2c0,.3-.1.6-.1,1v.2H84.8Z"/></svg>