<svg xmlns="http://www.w3.org/2000/svg" viewBox="0 0 100.9 31.3"><defs><style>.a{fill:none;stroke:#47b978;stroke-linecap:round;stroke-linejoin:round;stroke-width:3px;}</style></defs><path class="a" d="M71,29.8V15.7A14.2,14.2,0,0,1,85.2,1.5h0A14.2,14.2,0,0,1,99.4,15.7V29.8"/><path class="a" d="M36.3,29.8V15.7A14.1,14.1,0,0,1,50.4,1.5h0A14.1,14.1,0,0,1,64.6,15.7V29.8"/><line class="a" x1="80.6" y1="16.1" x2="89.8" y2="16.1"/><path class="a" d="M1.5,1.5H15.7A14.2,14.2,0,0,1,29.9,15.7h0A14.2,14.2,0,0,1,15.7,29.8H1.5"/><line class="a" x1="1.5" y1="5.8" x2="1.5" y2="25.5"/></svg>