<svg xmlns="http://www.w3.org/2000/svg" viewBox="0 0 100.865 31.34"><path d="M71.024,29.84V15.67A14.17,14.17,0,0,1,85.194,1.5h0A14.171,14.171,0,0,1,99.365,15.67V29.84" fill="none" stroke="#47b978" stroke-linecap="round" stroke-linejoin="round" stroke-width="3"/><path d="M36.268,29.84V15.67A14.17,14.17,0,0,1,50.438,1.5h0a14.17,14.17,0,0,1,14.17,14.17V29.84" fill="none" stroke="#47b978" stroke-linecap="round" stroke-linejoin="round" stroke-width="3"/><line x1="80.568" y1="16.117" x2="89.82" y2="16.117" fill="none" stroke="#47b978" stroke-linecap="round" stroke-linejoin="round" stroke-width="3"/><path d="M1.512,1.5h14.17a14.17,14.17,0,0,1,14.17,14.17h0a14.17,14.17,0,0,1-14.17,14.17H1.512" fill="none" stroke="#47b978" stroke-linecap="round" stroke-linejoin="round" stroke-width="3"/><line x1="1.5" y1="5.818" x2="1.5" y2="25.51" fill="none" stroke="#47b978" stroke-linecap="round" stroke-linejoin="round" stroke-width="3"/></svg>