<svg xmlns="http://www.w3.org/2000/svg" viewBox="0 0 43.4 48.85"><defs><style type="text/css">.a{fill:none;}.b{fill:#da3ab3;}.c{fill:#05ce7c;}.d{fill:#042f57;}.e{clip-path:url(#a);}</style><clipPath id="a"><rect class="a" x="-102.53" y="90.45" width="1140" height="611.33"/></clipPath></defs><path class="b" d="M14.77,1.54H2.38v19.8A19.84,19.84,0,0,1,14.77,3V1.54"/><path class="c" d="M22.18,1.54A19.79,19.79,0,0,0,14.77,3V21.34a7.41,7.41,0,1,1,14.82,0v25.3H42V21.34a19.83,19.83,0,0,0-19.8-19.8"/><path class="d" d="M14.77,3A19.84,19.84,0,0,0,2.38,21.34v25.3H14.77V3"/><path class="c" d="M6.48,43.78v-.89A2.33,2.33,0,0,1,7,41.29a2.1,2.1,0,0,1,1.67-.74,2,2,0,0,1,1.66.76,2.17,2.17,0,0,1,.51,1.59v.88Zm3.89-.48v-.43A1.86,1.86,0,0,0,10,41.63,1.67,1.67,0,0,0,8.66,41a1.67,1.67,0,0,0-1.72,1.83v.43Z"/><path class="c" d="M6.94,37.41v1.77H8.23V37.46h.45v1.72h1.69V37.41h.46v2.25H6.48V37.41Z"/><path class="c" d="M7.34,34.59a.9.9,0,0,0-.33.25.8.8,0,0,0-.15.49.67.67,0,0,0,.67.73.48.48,0,0,0,.38-.16,1.83,1.83,0,0,0,.28-.46L8.37,35a2.15,2.15,0,0,1,.41-.67A1,1,0,0,1,9.57,34a1.3,1.3,0,0,1,1.33,1.37,1.31,1.31,0,0,1-.35,1,1.64,1.64,0,0,1-.77.4l-.13-.47a1,1,0,0,0,.56-.26.82.82,0,0,0,.24-.62.83.83,0,0,0-.86-.88.63.63,0,0,0-.51.22,1.66,1.66,0,0,0-.3.52l-.18.39a2,2,0,0,1-.36.58.9.9,0,0,1-.71.3,1.12,1.12,0,0,1-1.12-1.22,1.21,1.21,0,0,1,.19-.7,1.42,1.42,0,0,1,.49-.42Z"/><path class="c" d="M6.48,32.67h4.35v.49H6.48Z"/><path class="c" d="M8.64,29.31V27.5h.11a2.41,2.41,0,0,1,1.37.42,1.94,1.94,0,0,1,.78,1.61,2.25,2.25,0,1,1-4.49,0,2.15,2.15,0,0,1,.43-1.33,2.67,2.67,0,0,1,.51-.5l.33.36a2.25,2.25,0,0,0-.45.41,1.59,1.59,0,0,0-.37,1.06,1.74,1.74,0,0,0,1.8,1.77,1.74,1.74,0,0,0,1.79-1.76,1.53,1.53,0,0,0-.73-1.33A1.47,1.47,0,0,0,9.1,28v1.29Z"/><path class="c" d="M10.83,26.62H6.3l3.55-3.39H6.48v-.48H11L7.47,26.14h3.36Z"/><path class="d" d="M36.6,42.36v1l.61.27v.27l-2.25-1,2.25-1v.28Zm-.22.1-.86.37.86.39Z"/><path class="d" d="M35.06,41.15a1,1,0,0,1,.12-.55.56.56,0,0,1,.48-.25.58.58,0,0,1,.59.57l1-.71v.3l-.94.68v.07h.94v.25H35.06Zm1,.11V41.1c0-.31-.15-.5-.4-.5a.32.32,0,0,0-.31.18.63.63,0,0,0-.06.33v.15Z"/><path class="d" d="M35.53,38.1a1.82,1.82,0,0,0-.2.29,1,1,0,0,0-.08.39.88.88,0,0,0,.9.9.87.87,0,0,0,.87-.9,1,1,0,0,0-.28-.68H37a1.22,1.22,0,0,1,.21.68,1.12,1.12,0,1,1-2.23,0,1.09,1.09,0,0,1,.22-.66Z"/><path class="d" d="M35.93,37.39V36.24h-.87V36h2.15v.25H36.16v1.15h1.05v.25H35.06v-.25Z"/><path class="d" d="M35.06,35.17h2.15v.25H35.06Z"/><path class="d" d="M35.29,34h1.92v.25H35.29v.55h-.23V33.49h.23Z"/><path class="d" d="M35.29,32v.91h.63V32h.23v.89H37V32h.23v1.16H35.06V32Z"/><path class="d" d="M35.53,29.81a1.56,1.56,0,0,0-.2.3,1,1,0,0,0-.08.38.89.89,0,0,0,.9.91.88.88,0,0,0,.87-.91,1,1,0,0,0-.1-.42.93.93,0,0,0-.18-.26H37a1.22,1.22,0,0,1,.21.68,1.12,1.12,0,1,1-2.23,0,1.1,1.1,0,0,1,.22-.67Z"/><path class="d" d="M35.29,28.8h1.92v.25H35.29v.55h-.23V28.26h.23Z"/><path class="d" d="M36.38,27.67a.62.62,0,0,0,.52-.17.71.71,0,0,0,.12-.38.68.68,0,0,0-.12-.37.62.62,0,0,0-.52-.17H35.06v-.25h1.38a.8.8,0,1,1,0,1.59H35.06v-.25Z"/><path class="d" d="M35.06,25.39a1,1,0,0,1,.12-.55.55.55,0,0,1,.48-.24.57.57,0,0,1,.59.56l1-.71v.3l-.94.69v.06h.94v.25H35.06Zm1,.11v-.16c0-.31-.15-.49-.4-.49a.31.31,0,0,0-.31.17.65.65,0,0,0-.06.33v.15Z"/><path class="d" d="M35.29,22.89v.92h.63v-.89h.23v.89H37v-.92h.23v1.17H35.06V22.89Z"/><g class="e"></g></svg>